<svg width="1810" height="405" viewBox="0 0 1810 405" fill="none" xmlns="http://www.w3.org/2000/svg">
<path d="M1625.32 99L1809.5 405H1444.5L1625.32 99Z" fill="#1B1B1D"/>
<path d="M1056.55 94L1270 405H847L1056.55 94Z" fill="#18181A"/>
<path d="M1292.97 0L1570 404H1021L1292.97 0Z" fill="#1E1E20"/>
<path d="M1556 294.75L1547.35 315.591L1481.72 298.871L1556 294.75Z" fill="#434244"/>
<path d="M1556 294.75L1569.15 405H1510.25L1556 294.75Z" fill="#252C3E"/>
<path d="M1481.71 298.87L1510.95 404.977H1476.05L1481.71 298.87Z" fill="#202532"/>
<path d="M1481.72 298.87L1547.35 315.591L1510.68 404.026L1481.72 298.87Z" fill="#222736"/>
<path d="M1588.72 361L1584.26 369.318L1550.42 362.645L1588.72 361Z" fill="#434244"/>
<path d="M1588.72 361L1595.5 405H1565.13L1588.72 361Z" fill="#252C3E"/>
<path d="M1550.42 362.644L1565.49 404.991H1547.5L1550.42 362.644Z" fill="#202532"/>
<path d="M1550.42 362.644L1584.26 369.317L1565.36 404.611L1550.42 362.644Z" fill="#222736"/>
<path d="M1164.94 287L1158.09 309.231L1106.11 291.395L1164.94 287Z" fill="#434244"/>
<path d="M1164.94 287L1175.35 404.6H1128.71L1164.94 287Z" fill="#252C3E"/>
<path d="M1106.11 291.395L1129.26 404.576H1101.62L1106.11 291.395Z" fill="#202532"/>
<path d="M1106.11 291.395L1158.09 309.23L1129.05 403.562L1106.11 291.395Z" fill="#222736"/>
<path d="M1385.43 314.35L1393.52 331.486L1454.83 317.738L1385.43 314.35Z" fill="#434244"/>
<path d="M1385.43 314.35L1373.15 405H1428.17L1385.43 314.35Z" fill="#252C3E"/>
<path d="M1454.83 317.739L1427.52 404.983H1460.12L1454.83 317.739Z" fill="#202532"/>
<path d="M1454.83 317.739L1393.52 331.487L1427.77 404.201L1454.83 317.739Z" fill="#222736"/>
<path d="M181.557 98L394.5 404H0L181.557 98Z" fill="#1B1B1D"/>
<path d="M1385.15 343.75L1379.34 355.328L1335.3 346.039L1385.15 343.75Z" fill="#434244"/>
<path d="M1385.15 343.75L1393.98 405H1354.45L1385.15 343.75Z" fill="#252C3E"/>
<path d="M1335.3 346.039L1354.92 404.988H1331.5L1335.3 346.039Z" fill="#202532"/>
<path d="M1335.3 346.039L1379.34 355.328L1354.74 404.459L1335.3 346.039Z" fill="#222736"/>
<path d="M1178.14 328.65L1185.77 343.007L1243.63 331.489L1178.14 328.65Z" fill="#434244"/>
<path d="M1178.14 328.65L1166.55 404.6H1218.47L1178.14 328.65Z" fill="#252C3E"/>
<path d="M1243.63 331.488L1217.86 404.584H1248.62L1243.63 331.488Z" fill="#202532"/>
<path d="M1243.63 331.488L1185.77 343.007L1218.09 403.929L1243.63 331.488Z" fill="#222736"/>
<path d="M407.922 206L526 404H292L407.922 206Z" fill="#1E1E20"/>
<path d="M822.503 131L986.5 405H661.5L822.503 131Z" fill="#1B1B1D"/>
<path d="M923.418 206L1042 404H807L923.418 206Z" fill="#1E1E20"/>
<path d="M1443.59 258L1450.44 285.788L1502.42 263.494L1443.59 258Z" fill="#434244"/>
<path d="M1443.59 258L1433.17 405H1479.82L1443.59 258Z" fill="#252C3E"/>
<path d="M1502.42 263.495L1479.26 404.971H1506.9L1502.42 263.495Z" fill="#202532"/>
<path d="M1502.42 263.495L1450.44 285.789L1479.48 403.703L1502.42 263.495Z" fill="#222736"/>
<path d="M1100.15 343.125L1094.34 354.703L1050.3 345.414L1100.15 343.125Z" fill="#434244"/>
<path d="M1100.15 343.125L1108.98 404.375H1069.45L1100.15 343.125Z" fill="#252C3E"/>
<path d="M1050.3 345.414L1069.92 404.363H1046.5L1050.3 345.414Z" fill="#202532"/>
<path d="M1050.3 345.414L1094.34 354.703L1069.74 403.834L1050.3 345.414Z" fill="#222736"/>
</svg>
