<svg width="30" height="38" viewBox="0 0 20 28" fill="none" xmlns="http://www.w3.org/2000/svg">
<path d="M10.0417 0.666748C4.87231 0.666748 0.666687 4.87237 0.666687 10.0417C0.666687 11.7883 1.15049 13.4928 2.06611 14.9715L9.50804 26.9641C9.65059 27.1938 9.90174 27.3334 10.1718 27.3334C10.1739 27.3334 10.176 27.3334 10.178 27.3334C10.4505 27.3313 10.7022 27.1874 10.8421 26.9536L18.0943 14.8449C18.9594 13.3974 19.4167 11.7365 19.4167 10.0417C19.4167 4.87237 15.2111 0.666748 10.0417 0.666748ZM16.7535 14.0427L10.16 25.0514L3.39413 14.1483C2.632 12.9175 2.21877 11.4975 2.21877 10.0417C2.21877 5.73394 5.73387 2.21883 10.0417 2.21883C14.3495 2.21883 17.8594 5.73394 17.8594 10.0417C17.8594 11.4543 17.4734 12.838 16.7535 14.0427Z" fill="#BBB9B9"/>
<path d="M10.0417 5.35425C7.457 5.35425 5.35419 7.45706 5.35419 10.0417C5.35419 12.6099 7.42278 14.7292 10.0417 14.7292C12.6929 14.7292 14.7292 12.5817 14.7292 10.0417C14.7292 7.45706 12.6264 5.35425 10.0417 5.35425ZM10.0417 13.1772C8.30955 13.1772 6.90627 11.7692 6.90627 10.0417C6.90627 8.31862 8.31856 6.90633 10.0417 6.90633C11.7648 6.90633 13.1719 8.31862 13.1719 10.0417C13.1719 11.744 11.8013 13.1772 10.0417 13.1772Z" fill="#BBB9B9"/>
</svg>
