<svg width="40" height="40" viewBox="0 0 40 40" fill="none" xmlns="http://www.w3.org/2000/svg">
<path d="M40 20C40 8.96842 31.0316 -2.98023e-07 20 -2.98023e-07C8.96842 -2.98023e-07 0 8.96842 0 20C0 31.0316 8.96842 40 20 40C31.0316 40 40 31.0316 40 20ZM18.6526 26.9053L10.9474 19.1579C10.5684 18.7789 10.4 18.3158 10.4 17.8105C10.4 17.3053 10.5684 16.8421 10.9474 16.4632C11.6632 15.7474 12.8842 15.7474 13.6 16.4632L20 22.9053L26.4 16.5053C27.1158 15.7895 28.3368 15.7895 29.0526 16.5053C29.7684 17.2211 29.7684 18.4421 29.0526 19.1579L21.3474 26.9053C21.0105 27.2421 20.5053 27.4526 20 27.4526C19.4947 27.4526 19.0316 27.2421 18.6526 26.9053Z" fill="#141416"/>
</svg>
