<svg width="40" height="40" viewBox="0 0 40 40" fill="none" xmlns="http://www.w3.org/2000/svg">
<path d="M0 20C0 8.96842 8.96842 0 20 0C31.0316 0 40 8.96842 40 20C40 31.0316 31.0316 40 20 40C8.96842 40 0 31.0316 0 20ZM21.3474 26.9053L29.0526 19.1579C29.4316 18.7789 29.6 18.3158 29.6 17.8105C29.6 17.3053 29.4316 16.8421 29.0526 16.4632C28.3368 15.7474 27.1158 15.7474 26.4 16.4632L20 22.9053L13.6 16.5053C12.8842 15.7895 11.6632 15.7895 10.9474 16.5053C10.2316 17.2211 10.2316 18.4421 10.9474 19.1579L18.6526 26.9053C18.9895 27.2421 19.4947 27.4526 20 27.4526C20.5053 27.4526 20.9684 27.2421 21.3474 26.9053Z" fill="#BBB9B9"/>
</svg>
