<svg width="27" height="28" viewBox="0 0 27 28" fill="none" xmlns="http://www.w3.org/2000/svg">
<path d="M13.38 2.11056C15.7078 2.11056 17.9833 2.80082 19.9188 4.09406C21.8542 5.38731 23.3627 7.22544 24.2535 9.37603C25.1444 11.5266 25.3774 13.8931 24.9233 16.1761C24.4692 18.4592 23.3482 20.5563 21.7023 22.2022C20.0563 23.8482 17.9592 24.9692 15.6761 25.4233C13.3931 25.8774 11.0266 25.6443 8.87603 24.7535C6.72545 23.8627 4.88731 22.3542 3.59407 20.4187C2.30083 18.4833 1.61056 16.2078 1.61056 13.88C1.61384 10.7596 2.85489 7.76786 5.06137 5.56137C7.26786 3.35488 10.2596 2.11383 13.38 2.11056V2.11056ZM13.38 0.5C10.7337 0.5 8.1468 1.28472 5.94648 2.75494C3.74615 4.22515 2.0312 6.31482 1.0185 8.75969C0.00579737 11.2046 -0.259171 13.8948 0.257099 16.4903C0.773369 19.0858 2.04769 21.4699 3.91892 23.3411C5.79014 25.2123 8.17423 26.4866 10.7697 27.0029C13.3652 27.5192 16.0554 27.2542 18.5003 26.2415C20.9452 25.2288 23.0349 23.5139 24.5051 21.3135C25.9753 19.1132 26.76 16.5263 26.76 13.88C26.76 10.3314 25.3503 6.92815 22.8411 4.41891C20.3319 1.90967 16.9286 0.5 13.38 0.5V0.5Z" fill="black"/>
<path d="M13.6476 2.11056C14.1655 2.11056 15.0798 3.01742 15.8603 5.00708C16.7795 7.35105 17.285 10.5028 17.285 13.88C17.285 17.2572 16.7894 20.4089 15.8603 22.7529C15.0798 24.7351 14.1679 25.6494 13.6476 25.6494C13.1273 25.6494 12.2155 24.7426 11.435 22.7529C10.5182 20.4089 10.0102 17.2572 10.0102 13.88C10.0102 10.5028 10.5058 7.35105 11.435 5.00708C12.2179 3.01494 13.1322 2.11056 13.6476 2.11056ZM13.6476 0.5C10.7486 0.5 8.39967 6.49127 8.39967 13.88C8.39967 21.2687 10.7486 27.26 13.6476 27.26C16.5466 27.26 18.8955 21.2687 18.8955 13.88C18.8955 6.49127 16.5466 0.5 13.6476 0.5V0.5Z" fill="black"/>
<path d="M1.89796 18.0601H25.3972" stroke="black" stroke-width="1.5" stroke-miterlimit="10"/>
<path d="M1.89796 9.69751H25.3972" stroke="black" stroke-width="1.5" stroke-miterlimit="10"/>
</svg>
