<svg width="40" height="40" viewBox="0 0 40 40" fill="none" xmlns="http://www.w3.org/2000/svg">
<path d="M-2.98023e-07 20C-2.98023e-07 31.0316 8.96842 40 20 40C31.0316 40 40 31.0316 40 20C40 8.96842 31.0316 0 20 0C8.96842 0 -2.98023e-07 8.96842 -2.98023e-07 20ZM21.3474 13.0947L29.0526 20.8421C29.4316 21.2211 29.6 21.6842 29.6 22.1895C29.6 22.6947 29.4316 23.1579 29.0526 23.5368C28.3368 24.2526 27.1158 24.2526 26.4 23.5368L20 17.0947L13.6 23.4947C12.8842 24.2105 11.6632 24.2105 10.9474 23.4947C10.2316 22.7789 10.2316 21.5579 10.9474 20.8421L18.6526 13.0947C18.9895 12.7579 19.4947 12.5474 20 12.5474C20.5053 12.5474 20.9684 12.7579 21.3474 13.0947Z" fill="#BBB9B9"/>
</svg>
