<svg width="27" height="27" viewBox="0 0 27 27" fill="none" xmlns="http://www.w3.org/2000/svg">
<path d="M18.8641 9.09793H25.92V17.5721H18.8641C18.5076 17.5721 18.194 17.7148 17.9544 17.9544C17.7148 18.194 17.5721 18.5076 17.5721 18.8641V25.92H9.09793V18.8641C9.09793 18.5076 8.95522 18.194 8.71564 17.9544C8.47605 17.7148 8.16235 17.5721 7.80585 17.5721H0.75V9.09793H7.80585C8.16235 9.09793 8.47605 8.95522 8.71564 8.71564C8.95522 8.47605 9.09793 8.16235 9.09793 7.80585V0.75H17.5721V7.80585C17.5721 8.16235 17.7148 8.47605 17.9544 8.71564C18.194 8.95522 18.5076 9.09793 18.8641 9.09793Z" stroke="black" stroke-width="1.5"/>
</svg>
