<svg width="35" height="23" viewBox="0 0 35 23" fill="none" xmlns="http://www.w3.org/2000/svg">
<path d="M19.1542 3.30261C18.9714 3.14033 18.7844 2.98251 18.5925 2.83058C18.7864 2.98 18.9738 3.13752 19.1542 3.30261ZM20.6629 4.20861C20.5397 4.2737 20.4186 4.34243 20.3 4.41465C19.322 3.11837 17.9896 2.10286 16.4466 1.51545L16.4393 1.53479C16.0574 1.3765 15.6583 1.24782 15.2398 1.15525C14.6322 1.02085 14.0008 0.949993 13.3529 0.949993C8.54969 0.949993 4.65588 4.8438 4.65588 9.64705C4.65588 9.80692 4.6602 9.96579 4.66871 10.1236C2.47894 11.0897 0.95 13.2818 0.95 15.8235C0.95 19.2623 3.73013 22.05 7.17578 22.05H28.1772C31.6156 22.05 34.4029 19.2553 34.4029 15.8235C34.4029 13.28 32.8819 11.0927 30.6957 10.1262C30.6542 8.0386 29.6781 6.18025 28.1687 4.9525C28.1663 4.93135 28.1592 4.91065 28.15 4.89135C28.1362 4.8623 28.1155 4.83193 28.0902 4.80093C28.0396 4.7389 27.9659 4.66881 27.8768 4.5945C27.6981 4.44555 27.451 4.27453 27.1845 4.11009C26.9178 3.94553 26.6304 3.78676 26.3704 3.66251C26.1118 3.53893 25.876 3.44732 25.7141 3.42037C23.8563 3.11119 22.7663 3.22656 22.0011 3.49182C21.6188 3.62436 21.3196 3.79369 21.0483 3.96324C20.978 4.00717 20.9099 4.05091 20.8429 4.09396C20.7823 4.13287 20.7226 4.17121 20.6629 4.20861ZM6.07718 11.0573L6.12385 11.0465L6.11511 10.9994C6.03373 10.5611 5.99117 10.109 5.99117 9.64705C5.99117 5.58126 9.28715 2.28529 13.3529 2.28529C16.2195 2.28529 18.7035 3.92368 19.9194 6.31536L19.9503 6.3761L19.999 6.32843C20.9925 5.35556 22.3526 4.75587 23.8529 4.75587C26.8954 4.75587 29.3618 7.22226 29.3618 10.2647C29.3618 10.5208 29.3443 10.7727 29.3105 11.0194L29.3044 11.064L29.348 11.0748C31.4798 11.6015 33.0676 13.528 33.0676 15.8235C33.0676 18.5193 30.8762 20.7147 28.173 20.7147H7.17995C4.48381 20.7147 2.28529 18.5248 2.28529 15.8235C2.28529 13.506 3.90498 11.5581 6.07718 11.0573Z" fill="black" stroke="black" stroke-width="0.1"/>
<path d="M12.2988 17.2168C11.7363 17.2168 11.2324 17.0723 10.7871 16.7832C10.3418 16.4941 9.99023 16.0566 9.73242 15.4707C9.47461 14.8809 9.3457 14.1582 9.3457 13.3027C9.3457 12.377 9.49414 11.6172 9.79102 11.0234C10.0918 10.4297 10.4727 10 10.9336 9.73438C11.3984 9.46484 11.8906 9.33008 12.4102 9.33008C12.9766 9.33008 13.4668 9.48047 13.8809 9.78125C14.2949 10.082 14.6152 10.5 14.8418 11.0352L13.8691 11.5098L13.7754 11.5566L13.7168 11.4336C13.7285 11.3984 13.7344 11.3613 13.7344 11.3223C13.7344 11.2402 13.6875 11.1289 13.5938 10.9883C13.3242 10.6055 12.9414 10.4141 12.4453 10.4141C11.8672 10.4141 11.4375 10.6641 11.1562 11.1641C10.8789 11.6641 10.7402 12.3574 10.7402 13.2441C10.7402 13.7871 10.8086 14.2793 10.9453 14.7207C11.0859 15.1582 11.2812 15.5039 11.5312 15.7578C11.7852 16.0117 12.0703 16.1387 12.3867 16.1387C12.8945 16.1387 13.3457 15.7891 13.7402 15.0898L14.7598 15.752C14.4785 16.2324 14.1309 16.5977 13.7168 16.8477C13.3027 17.0938 12.8301 17.2168 12.2988 17.2168ZM18.0352 17.2168C17.4453 17.2168 16.9375 17.0605 16.5117 16.748C16.0898 16.4316 15.7656 15.9766 15.5391 15.3828C15.3164 14.7852 15.2051 14.0723 15.2051 13.2441C15.2051 12.4277 15.3164 11.7266 15.5391 11.1406C15.7656 10.5547 16.0898 10.1074 16.5117 9.79883C16.9375 9.48633 17.4453 9.33008 18.0352 9.33008C18.625 9.33008 19.1309 9.48633 19.5527 9.79883C19.9785 10.1074 20.3027 10.5547 20.5254 11.1406C20.752 11.7266 20.8652 12.4277 20.8652 13.2441C20.8652 14.0723 20.752 14.7852 20.5254 15.3828C20.3027 15.9766 19.9785 16.4316 19.5527 16.748C19.1309 17.0605 18.625 17.2168 18.0352 17.2168ZM18.0352 16.1387C18.332 16.1387 18.5879 16.0176 18.8027 15.7754C19.0215 15.5293 19.1875 15.1836 19.3008 14.7383C19.418 14.2891 19.4766 13.7676 19.4766 13.1738C19.4766 12.623 19.418 12.1406 19.3008 11.7266C19.1875 11.3086 19.0215 10.9863 18.8027 10.7598C18.5879 10.5293 18.332 10.4141 18.0352 10.4141C17.7422 10.4141 17.4863 10.5293 17.2676 10.7598C17.0488 10.9863 16.8809 11.3086 16.7637 11.7266C16.6504 12.1406 16.5938 12.623 16.5938 13.1738C16.5938 13.7676 16.6504 14.2891 16.7637 14.7383C16.8809 15.1836 17.0469 15.5293 17.2617 15.7754C17.4805 16.0176 17.7383 16.1387 18.0352 16.1387ZM21.6855 16.0156C22.6504 15.0898 23.3418 14.4062 23.7598 13.9648C24.1816 13.5234 24.502 13.1133 24.7207 12.7344C24.9434 12.3516 25.0547 11.9609 25.0547 11.5625C25.0547 11.2461 24.9551 10.9961 24.7559 10.8125C24.5566 10.625 24.2891 10.5312 23.9531 10.5312C23.457 10.5312 23.0527 10.6875 22.7402 11C22.6699 11.0703 22.6211 11.1348 22.5938 11.1934C22.5664 11.248 22.5527 11.3027 22.5527 11.3574L22.5586 11.4219L22.4766 11.5332L22.3945 11.4688L21.5039 10.7949C21.793 10.3301 22.1465 9.97461 22.5645 9.72852C22.9863 9.47852 23.457 9.35352 23.9766 9.35352C24.4219 9.35352 24.8223 9.44727 25.1777 9.63477C25.5332 9.81836 25.8105 10.0762 26.0098 10.4082C26.2129 10.7402 26.3145 11.1211 26.3145 11.5508C26.3145 11.9766 26.2129 12.3848 26.0098 12.7754C25.8105 13.166 25.5469 13.5449 25.2188 13.9121C24.8945 14.2793 24.416 14.7793 23.7832 15.4121L23.3027 15.8867H25.7461C25.875 15.8867 25.9688 15.8809 26.0273 15.8691C26.0898 15.8535 26.1445 15.8242 26.1914 15.7812H26.3262V17H21.6855V16.0156Z" fill="black"/>
</svg>
