<svg width="1226" height="1000" viewBox="0 0 1226 1000" fill="none" xmlns="http://www.w3.org/2000/svg">
<path d="M538.98 0.741782C538.28 0.941782 537.68 1.64178 537.68 2.24178C537.68 2.74178 535.98 4.84178 533.98 6.94178C530.48 10.3418 528.68 12.8418 526.48 17.2418C526.08 18.2418 525.28 19.9418 524.68 21.0418C524.18 22.1418 523.68 23.5418 523.68 24.1418C523.68 24.7418 522.38 26.5418 520.68 28.0418C519.08 29.5418 517.68 31.2418 517.68 31.7418C517.68 32.2418 516.38 33.9418 514.68 35.5418C513.08 37.1418 511.68 38.9418 511.68 39.6418C511.68 40.3418 508.98 43.6418 505.68 46.9418C502.38 50.3418 499.68 53.7418 499.68 54.5418C499.68 55.3418 499.28 56.0418 498.68 56.0418C498.18 56.0418 497.68 56.7418 497.68 57.5418C497.68 58.4418 496.88 59.4418 495.98 59.7418C493.48 60.6418 491.78 63.1418 491.68 65.7418C491.68 67.0418 491.28 68.0418 490.68 68.0418C490.18 68.0418 489.68 68.9418 489.68 70.0418C489.68 71.1418 489.28 72.0418 488.68 72.0418C488.18 72.0418 487.68 72.6418 487.68 73.3418C487.68 75.8418 485.18 80.0418 483.38 80.6418C482.38 80.9418 480.48 82.2418 479.18 83.6418C477.88 84.9418 476.08 86.0418 475.18 86.0418C474.38 86.0418 473.68 86.4418 473.68 87.0418C473.68 87.5418 473.08 88.0418 472.38 88.0418C471.68 88.0418 470.08 88.9418 468.88 90.0418C467.28 91.5418 465.38 92.0418 460.78 92.0418C457.48 92.0418 454.48 91.5418 454.18 91.0418C453.18 89.3418 450.18 89.9418 448.68 92.0418C447.88 93.1418 446.58 94.0418 445.88 94.0418C445.08 94.0418 443.08 95.0418 441.38 96.2418C436.88 99.4418 421.68 114.742 421.68 116.142C421.68 116.742 420.38 118.542 418.68 120.042C417.08 121.542 415.68 123.242 415.68 123.842C415.68 124.342 414.38 126.142 412.68 127.842C411.08 129.642 409.68 131.342 409.68 131.742C409.68 132.242 408.28 133.942 406.68 135.742C404.98 137.542 403.68 139.442 403.68 140.042C403.68 141.342 393.08 152.042 391.68 152.042C391.18 152.042 390.68 152.442 390.68 153.042C390.68 153.542 390.18 154.042 389.58 154.042C388.98 154.042 387.18 155.342 385.68 157.042C384.18 158.642 382.38 160.042 381.68 160.042C380.98 160.042 379.18 161.342 377.68 163.042C376.18 164.642 374.18 166.042 373.28 166.042C372.38 166.042 371.68 166.442 371.68 167.042C371.68 167.542 370.98 168.042 370.08 168.042C368.48 168.042 365.68 170.342 365.68 171.542C365.68 172.842 351.98 185.342 349.58 186.242C348.78 186.542 347.48 188.642 346.68 190.942C345.98 193.142 343.88 196.642 342.08 198.542C340.28 200.542 338.48 203.042 338.18 204.142C337.78 205.142 337.18 206.042 336.78 206.042C336.48 206.042 335.28 207.342 334.38 209.042C333.38 210.642 331.88 212.042 331.08 212.042C330.28 212.042 329.68 212.442 329.68 213.042C329.68 213.542 329.08 214.042 328.38 214.042C326.58 214.042 321.68 216.442 321.68 217.242C321.68 217.742 321.18 218.042 320.58 218.042C318.08 218.042 313.68 222.442 311.58 227.042C310.38 229.842 308.98 232.042 308.48 232.042C308.08 232.042 307.68 232.742 307.68 233.542C307.68 235.342 299.28 244.042 297.58 244.042C296.98 244.042 294.38 246.242 291.78 248.842L287.08 253.642L274.48 253.742L261.78 253.842L259.28 249.942C257.88 247.842 256.68 245.642 256.68 245.042C256.68 244.542 256.28 244.042 255.68 244.042C255.08 244.042 254.68 240.842 254.68 236.442C254.68 229.342 254.48 228.742 251.68 226.342C250.08 225.042 248.68 223.242 248.68 222.442C248.68 221.642 247.58 219.842 246.18 218.442C244.78 217.042 243.68 215.542 243.68 215.042C243.68 213.842 230.78 201.242 227.58 199.342C226.08 198.442 224.18 196.542 223.28 194.942C222.38 193.442 219.18 189.642 216.18 186.442C213.18 183.342 210.68 180.242 210.68 179.542C210.68 177.942 202.48 174.042 199.18 174.042C197.78 174.042 196.68 173.542 196.68 173.042C196.68 172.442 195.78 172.042 194.68 172.042C193.58 172.042 192.68 171.642 192.68 171.142C192.68 170.642 191.78 170.042 190.68 169.742C189.58 169.442 188.68 168.542 188.68 167.642C188.68 166.742 188.28 166.042 187.68 166.042C187.18 166.042 186.68 164.642 186.68 163.042C186.68 161.342 186.28 160.042 185.68 160.042C185.18 160.042 184.68 158.442 184.68 156.442C184.68 153.742 184.18 152.742 182.68 152.342C181.58 152.042 180.68 151.442 180.68 150.942C180.68 150.442 179.38 150.042 177.88 150.042C176.38 150.042 174.58 149.542 173.98 148.942C173.18 148.142 168.88 147.842 161.58 147.842C154.98 147.942 148.88 147.542 146.98 146.842C144.48 145.942 143.18 145.942 141.48 146.842C140.18 147.442 133.98 148.242 127.68 148.442C109.58 149.242 104.08 149.942 101.78 152.142C100.68 153.142 99.2798 154.042 98.5798 154.042C97.0798 154.042 91.6798 159.942 91.6798 161.542C91.6798 162.242 93.7798 163.642 96.4798 164.542C103.48 166.842 112.58 173.842 115.18 178.742C116.98 182.242 118.78 183.642 125.78 187.342C130.38 189.742 134.68 192.542 135.18 193.642C136.38 196.042 149.98 209.542 152.38 210.842C153.38 211.342 155.68 211.842 157.38 211.842C159.18 211.842 162.48 212.942 164.58 214.142C168.08 216.142 168.58 216.742 168.48 220.142C168.48 222.142 169.58 226.442 171.08 229.542C172.48 232.742 173.68 235.842 173.68 236.542C173.68 237.642 182.78 246.742 192.18 255.142C197.98 260.242 198.68 261.342 200.18 267.742C201.38 272.742 201.28 273.842 199.98 276.442C199.08 278.142 197.78 280.042 196.98 280.842C193.18 284.742 192.18 288.442 192.28 299.542C192.38 313.242 193.88 317.042 201.18 321.742C204.78 324.142 206.78 326.342 208.38 329.742C210.98 335.442 211.18 338.042 209.18 338.042C208.38 338.042 207.68 338.442 207.68 339.042C207.68 339.542 207.08 340.042 206.28 340.042C202.88 340.042 202.78 347.242 206.18 350.642C207.58 352.042 209.38 354.442 210.18 356.042C211.58 358.742 211.58 359.342 210.18 362.042C208.28 365.742 208.28 374.842 210.18 382.042C212.58 390.942 212.18 394.142 208.18 398.442C206.28 400.542 204.68 402.642 204.68 403.142C204.68 403.642 204.08 404.042 203.38 404.042C202.68 404.042 201.18 404.842 200.08 405.742C199.08 406.742 196.98 408.142 195.48 408.942C193.88 409.742 192.68 410.742 192.68 411.242C192.68 411.642 191.98 412.042 191.18 412.042C190.38 412.042 189.68 412.442 189.68 412.842C189.68 413.342 188.28 415.142 186.48 416.942C183.58 419.942 182.88 420.142 178.78 419.742C172.88 419.042 168.08 418.242 163.48 417.042C154.28 414.642 151.98 414.142 149.58 413.642C146.48 412.942 140.68 407.842 140.68 405.842C140.68 405.042 140.28 404.042 139.78 403.442C139.28 402.942 138.58 400.542 138.28 398.042C137.28 389.642 136.48 386.042 135.58 386.042C135.08 386.042 134.68 385.142 134.68 384.042C134.68 382.942 134.28 382.042 133.68 382.042C133.18 382.042 132.68 381.142 132.68 380.042C132.68 378.942 132.28 378.042 131.68 378.042C131.18 378.042 130.68 377.442 130.68 376.642C130.68 375.942 129.58 374.242 128.28 372.842C126.08 370.742 124.88 370.442 116.98 370.242C107.38 369.942 106.08 370.542 103.28 376.342C102.68 377.542 101.18 378.942 99.8798 379.542C98.6798 380.042 97.6798 380.842 97.6798 381.242C97.6798 381.742 97.0798 382.042 96.3798 382.042C95.6798 382.042 93.8798 382.642 92.3798 383.242C89.2798 384.742 87.6798 389.042 87.6798 396.042C87.7798 401.742 88.9798 403.842 95.1798 408.742C97.9798 410.942 102.28 415.842 104.88 419.742C108.98 425.742 109.78 427.742 110.78 434.642C111.88 442.342 116.48 457.842 119.28 463.142C120.98 466.542 124.68 480.242 124.68 483.342C124.68 484.642 123.08 487.442 121.08 489.642C119.18 491.742 116.38 496.042 114.88 499.042C112.28 504.342 112.18 505.142 112.48 519.042C112.78 535.242 113.48 537.042 119.38 537.042C121.18 537.042 122.68 537.442 122.68 538.042C122.68 538.642 126.88 539.042 133.18 539.042C141.78 539.042 144.58 538.642 147.88 537.042C150.18 535.942 152.78 535.042 153.58 535.042C154.48 535.042 156.28 534.142 157.68 533.042C159.08 531.942 160.78 531.042 161.48 531.042C162.08 531.042 162.68 530.542 162.68 530.042C162.68 529.442 163.68 529.042 164.98 529.042C166.28 529.042 167.78 528.542 168.28 528.042C169.88 526.442 175.98 526.542 179.48 528.142C182.68 529.542 183.78 532.542 181.68 534.642C181.18 535.142 180.38 541.242 179.88 548.042C178.78 565.042 177.58 567.242 167.68 572.142C163.58 574.142 156.78 576.842 152.68 578.042C145.08 580.442 138.28 583.542 135.88 585.742C131.18 590.242 111.88 593.642 105.68 591.042C103.28 590.042 101.98 590.042 99.4798 591.042C95.2798 592.542 91.2798 594.442 90.6798 595.042C89.4798 596.242 85.5798 598.042 84.1798 598.042C83.3798 598.042 82.6798 598.442 82.6798 599.042C82.6798 599.542 81.0798 600.042 79.1798 600.042C75.7798 600.042 74.9798 600.342 69.9798 602.842C68.6798 603.542 66.9798 604.042 66.1798 604.042C65.3798 604.042 64.6798 604.442 64.6798 605.042C64.6798 605.542 64.0798 606.042 63.3798 606.042C62.6798 606.042 61.0798 606.942 59.8798 608.042C58.6798 609.142 57.3798 610.042 56.8798 610.042C56.3798 610.042 54.6798 611.342 53.0798 612.842C51.3798 614.442 49.2798 615.942 48.3798 616.342C47.4798 616.642 46.1798 618.042 45.5798 619.342C44.9798 620.642 43.1798 622.442 41.5798 623.442C39.9798 624.342 38.6798 625.742 38.6798 626.342C38.6798 627.042 37.4798 628.342 35.9798 629.242C34.3798 630.142 32.0798 631.942 30.6798 633.242C29.2798 634.542 24.3798 637.542 19.6798 639.942C9.17976 645.342 1.27976 653.142 0.379763 658.842C-1.12024 667.842 1.87976 673.042 8.37976 673.042C11.6798 673.042 15.4798 674.642 16.8798 676.542C17.2798 677.042 18.5798 676.942 20.0798 676.042C22.1798 674.942 22.6798 673.942 22.6798 670.842C22.6798 668.742 23.1798 667.042 23.6798 667.042C24.2798 667.042 24.6798 666.142 24.6798 665.142C24.6798 662.942 28.1798 660.042 30.8798 660.042C33.7798 660.042 35.6798 662.942 35.4798 667.142C35.2798 673.642 40.8798 677.442 44.0798 672.942C44.8798 671.742 46.2798 671.042 47.3798 671.242C48.8798 671.542 49.2798 672.842 49.7798 678.142C50.5798 688.142 51.8798 689.042 57.8798 684.042C59.8798 682.342 63.6798 680.642 66.3798 680.042C71.5798 678.842 75.3798 676.142 77.5798 671.842C78.3798 670.242 81.4798 667.942 85.5798 665.842C89.1798 664.042 92.3798 662.242 92.4798 661.842C92.6798 661.342 93.6798 661.042 94.7798 661.042C95.7798 661.042 96.6798 660.642 96.6798 660.142C96.6798 659.642 97.5798 658.842 98.6798 658.542C99.7798 658.142 103.18 655.442 106.28 652.442C109.38 649.442 112.38 647.042 113.08 647.042C113.68 647.042 114.88 646.142 115.68 645.042C116.48 643.942 117.88 643.042 118.88 643.042C119.78 643.042 120.88 642.542 121.18 642.042C121.48 641.442 122.88 641.042 124.28 641.042C125.58 641.042 126.68 640.742 126.68 640.242C126.68 639.842 128.78 638.442 131.48 637.042C134.08 635.742 137.88 632.942 139.98 630.942C142.08 628.842 145.78 626.642 148.28 625.942C150.68 625.242 152.68 624.242 152.68 623.842C152.68 623.442 153.28 623.042 153.98 623.042C155.78 623.042 160.68 620.642 160.68 619.742C160.68 619.342 161.28 619.042 162.08 619.042C162.88 619.042 165.88 616.742 168.78 614.042C171.68 611.242 174.38 609.042 174.68 609.042C175.08 609.042 176.78 607.742 178.48 606.042C180.28 604.442 182.08 603.042 182.58 603.042C183.68 603.042 198.68 588.642 198.68 587.442C198.68 586.942 199.58 585.442 200.68 584.042C202.28 582.042 202.68 579.942 202.68 572.742C202.68 567.942 202.28 564.042 201.88 564.042C201.48 564.042 200.28 562.642 199.38 561.042C198.38 559.342 196.88 558.042 196.08 558.042C195.28 558.042 194.68 557.542 194.68 557.042C194.68 556.442 193.88 556.042 192.98 556.042C190.28 556.042 184.48 549.042 185.18 546.642C185.58 545.442 186.08 543.042 186.38 541.142C187.28 535.442 190.18 533.042 196.18 533.042C199.88 533.042 201.88 532.542 203.48 531.042C204.68 529.942 206.18 529.042 206.88 529.042C207.68 529.042 208.88 528.142 209.68 527.042C210.48 525.842 212.28 525.042 213.88 525.042C215.38 525.042 216.88 524.542 217.18 524.042C217.48 523.442 221.18 523.042 225.28 523.042C230.78 523.042 232.68 522.742 232.68 521.742C232.68 519.742 235.98 517.042 238.48 517.042C240.18 517.042 240.68 516.442 240.68 514.242C240.68 510.842 244.38 507.042 247.58 507.042C250.68 507.042 252.68 504.742 252.68 501.142C252.68 499.542 253.18 497.842 253.68 497.542C254.28 497.242 254.68 493.942 254.68 490.342C254.68 484.942 254.98 483.742 256.48 483.342C257.48 483.142 259.08 481.542 260.08 479.942C261.08 478.342 262.78 475.942 263.98 474.742C265.18 473.542 267.08 470.742 268.18 468.542C269.38 466.342 271.28 464.142 272.48 463.542C273.68 463.042 274.68 462.242 274.68 461.842C274.68 461.342 275.38 461.042 276.28 461.042C277.78 461.042 282.78 457.942 285.48 455.442C286.08 454.742 286.68 453.342 286.68 452.342C286.78 451.342 288.08 448.942 289.68 447.042C291.38 445.142 292.68 442.642 292.68 441.342C292.68 440.142 293.18 438.842 293.68 438.542C294.18 438.242 294.68 436.642 294.68 434.942C294.68 433.342 295.18 432.042 295.68 432.042C296.28 432.042 296.68 431.142 296.68 430.042C296.68 428.942 297.18 428.042 297.68 428.042C298.28 428.042 298.68 427.442 298.68 426.742C298.68 424.142 301.78 419.142 305.18 416.242C309.58 412.342 314.98 411.442 321.78 413.442C328.48 415.442 337.78 415.442 348.58 413.442C355.68 412.142 357.68 412.042 360.98 413.142C363.98 414.142 365.58 414.142 367.88 413.242C369.98 412.442 372.38 412.442 375.78 413.042C379.38 413.742 381.28 413.642 382.68 412.742C383.78 412.142 384.68 411.242 384.68 410.942C384.68 410.542 386.78 409.742 389.28 409.042C392.98 407.942 396.98 407.942 409.58 408.842C418.18 409.542 428.38 410.042 432.28 410.042C438.48 410.042 440.28 410.542 445.78 413.442L452.18 416.842L473.18 416.942C484.78 417.042 502.28 416.842 512.18 416.442C539.78 415.442 540.78 415.442 547.38 418.442C552.08 420.642 555.48 421.342 565.18 422.042C575.88 422.842 577.58 422.742 580.68 421.142C587.68 417.542 588.48 417.542 615.18 421.542C621.48 422.542 628.58 424.342 631.88 425.742C640.38 429.542 647.18 438.042 641.78 438.042C640.68 438.042 639.48 438.442 639.18 439.042C638.88 439.542 637.78 440.042 636.78 440.042C635.88 440.042 634.08 440.942 632.88 442.042C631.68 443.142 630.28 444.042 629.68 444.042C629.08 444.042 627.68 444.942 626.48 446.042C625.28 447.142 623.68 448.042 622.98 448.042C622.28 448.042 621.68 448.442 621.68 448.942C621.68 451.142 615.38 452.042 599.58 451.942C590.38 451.842 582.28 452.142 581.58 452.642C580.28 453.442 574.48 454.742 567.38 455.742C565.38 456.042 563.38 456.642 563.08 457.142C562.78 457.642 561.28 458.042 559.68 458.042C558.08 458.042 556.48 458.442 556.18 459.042C555.88 459.542 554.68 460.042 553.58 460.042C552.58 460.042 551.68 460.442 551.68 461.042C551.68 461.542 550.58 462.042 549.28 462.042C547.88 462.042 546.48 462.442 546.18 463.042C545.88 463.542 544.38 464.042 542.98 464.042C540.68 464.042 536.08 466.642 532.78 469.842C532.08 470.542 530.18 471.442 528.58 471.742C526.98 472.042 525.68 472.642 525.68 473.142C525.68 473.642 524.78 474.042 523.68 474.042C522.58 474.042 521.68 474.442 521.68 474.942C521.68 475.442 519.98 476.542 517.98 477.342C515.88 478.142 512.88 480.042 511.18 481.442C509.58 482.842 507.78 484.042 507.38 484.042C506.98 484.042 505.68 484.942 504.48 486.042C503.28 487.142 501.68 488.042 500.98 488.042C500.28 488.042 499.68 488.442 499.68 489.042C499.68 489.542 498.88 490.042 497.88 490.042C494.88 490.042 490.08 492.842 488.88 495.242C486.68 499.842 484.68 523.042 486.58 523.042C487.18 523.042 487.68 523.942 487.68 525.042C487.68 526.142 488.08 527.042 488.68 527.042C489.18 527.042 491.08 528.342 492.88 529.842C494.68 531.442 498.28 533.942 500.98 535.442C503.58 536.942 505.68 538.742 505.68 539.542C505.68 540.242 506.58 541.242 507.68 541.542C509.08 541.942 509.68 543.042 509.68 545.142C509.68 550.542 516.68 555.042 525.38 555.042C527.08 555.042 528.78 555.442 529.08 555.942C529.68 556.942 535.68 558.442 537.18 558.042C538.58 557.642 547.38 556.042 552.08 555.342C554.18 555.042 556.88 555.242 558.08 555.842C559.18 556.342 562.18 557.342 564.68 558.042C567.18 558.642 569.98 559.642 570.88 560.142C571.88 560.642 573.08 561.042 573.68 561.042C574.28 561.042 575.68 561.942 576.88 563.042C578.08 564.142 579.68 565.042 580.38 565.042C581.08 565.042 581.68 565.442 581.68 565.842C581.68 567.042 586.38 569.042 589.18 569.042C590.58 569.042 591.68 569.442 591.68 570.042C591.68 570.542 592.58 571.042 593.68 571.042C594.78 571.042 595.68 571.442 595.68 571.942C595.68 574.042 620.28 575.242 631.68 573.642C634.68 573.242 638.18 572.342 639.48 571.742C642.28 570.442 664.98 572.342 665.48 574.042C665.68 574.542 667.18 575.042 668.78 575.042C670.38 575.042 671.68 575.442 671.68 575.942C671.68 576.442 672.58 577.142 673.58 577.542C674.68 577.842 676.98 579.442 678.78 581.142C680.48 582.742 682.18 584.042 682.58 584.042C682.98 584.042 683.98 585.142 684.68 586.542C685.38 587.942 686.58 589.042 687.28 589.042C687.88 589.042 689.28 590.242 690.28 591.842C691.18 593.342 693.28 595.742 694.88 597.242C696.38 598.642 697.68 600.342 697.68 601.042C697.68 603.042 704.98 609.042 707.48 609.042C708.68 609.042 709.68 609.442 709.68 610.042C709.68 610.642 712.48 611.042 716.08 611.042C719.68 611.042 722.88 611.542 723.18 612.042C723.48 612.642 724.78 613.042 725.98 613.042C727.18 613.042 730.68 613.942 733.68 615.042C739.58 617.142 746.18 617.642 747.18 616.042C748.48 613.942 755.28 616.142 760.38 620.242C761.58 621.242 763.88 621.042 778.18 618.942C782.08 618.442 787.88 617.742 791.18 617.442C794.48 617.142 798.08 616.542 799.18 616.042C800.28 615.542 803.68 614.942 806.68 614.542C822.68 612.742 829.68 611.342 829.68 609.942C829.68 609.442 830.58 609.042 831.58 609.042C832.68 609.042 833.68 608.642 833.88 608.242C834.28 607.042 843.38 601.042 844.58 601.042C845.18 601.042 845.68 600.542 845.68 600.042C845.68 599.442 846.58 599.042 847.68 599.042C848.78 599.042 849.68 598.642 849.68 598.242C849.68 597.742 851.68 596.342 854.18 595.042C856.68 593.742 860.08 591.442 861.68 589.842C863.38 588.342 865.18 587.042 865.68 587.042C866.28 587.042 867.68 586.142 868.88 585.042C870.08 583.942 871.88 583.042 872.78 583.042C873.78 583.042 874.88 582.542 875.18 582.042C875.48 581.442 878.08 581.042 880.78 581.042C885.28 581.042 901.88 576.542 906.88 573.942C907.88 573.442 909.58 573.042 910.58 573.042C911.68 573.042 912.88 572.542 913.18 572.042C913.48 571.442 915.08 571.042 916.78 571.042C918.38 571.042 919.68 570.542 919.68 570.042C919.68 569.442 920.98 569.042 922.68 569.042C924.28 569.042 927.18 568.142 929.18 567.042C931.18 565.942 933.58 565.042 934.68 565.042C935.68 565.042 936.88 564.542 937.18 564.042C937.48 563.442 939.28 563.042 940.98 562.942C946.78 562.842 959.68 559.342 959.68 557.942C959.68 557.442 960.58 557.042 961.68 557.042C962.78 557.042 963.68 556.542 963.68 556.042C963.68 555.442 964.38 555.042 965.18 555.042C966.98 555.042 970.28 553.242 973.08 550.742C974.18 549.842 975.68 549.042 976.38 549.042C977.08 549.042 977.68 548.642 977.68 548.142C977.68 547.642 979.08 546.742 980.68 546.042C982.38 545.342 983.68 544.442 983.68 543.942C983.68 543.442 984.38 543.042 985.28 543.042C988.18 543.042 995.68 534.042 995.68 530.542C995.68 529.742 996.38 529.042 997.28 529.042C998.18 529.042 1000.18 527.642 1001.68 526.042C1003.18 524.342 1005.18 523.042 1006.08 523.042C1006.98 523.042 1007.68 522.542 1007.68 522.042C1007.68 521.442 1008.58 521.042 1009.58 521.042C1010.68 521.042 1011.68 520.742 1011.88 520.242C1012.28 519.342 1017.58 516.142 1019.98 515.342C1020.88 515.042 1021.68 514.442 1021.68 513.942C1021.68 513.442 1022.38 513.042 1023.18 513.042C1024.08 513.042 1025.68 512.142 1026.88 511.042C1028.08 509.942 1030.08 509.042 1031.38 509.042C1032.68 509.042 1033.68 508.542 1033.68 508.042C1033.68 507.442 1034.58 507.042 1035.68 507.042C1036.78 507.042 1037.68 506.542 1037.68 506.042C1037.68 505.442 1038.58 505.042 1039.68 505.042C1040.78 505.042 1041.68 504.542 1041.68 504.042C1041.68 503.442 1043.08 503.042 1044.68 503.042C1046.38 503.042 1047.68 502.542 1047.68 502.042C1047.68 501.442 1048.58 501.042 1049.68 501.042C1050.78 501.042 1051.68 500.642 1051.68 500.142C1051.68 499.742 1054.68 497.842 1058.48 495.942C1062.18 494.042 1065.68 492.142 1066.28 491.542C1066.88 490.942 1069.28 489.642 1071.58 488.642C1073.78 487.542 1075.68 486.342 1075.68 485.842C1075.68 485.442 1076.88 485.042 1078.28 485.042C1079.68 485.042 1081.68 484.642 1082.68 484.042C1083.68 483.542 1087.18 483.042 1090.48 482.942C1095.18 482.842 1097.18 483.242 1099.48 484.942C1101.18 486.042 1103.18 487.042 1104.08 487.042C1104.98 487.042 1105.68 487.442 1105.68 488.042C1105.68 488.542 1106.38 489.042 1107.18 489.042C1107.98 489.042 1110.88 491.242 1113.68 493.842L1118.68 498.642V505.242C1118.68 510.842 1117.98 513.642 1114.28 522.742C1111.78 528.642 1108.08 536.842 1106.08 540.942L1102.38 548.442L1104.08 552.942C1104.98 555.442 1105.68 559.542 1105.68 561.942C1105.68 564.442 1106.78 569.142 1108.18 572.542C1111.68 581.342 1112.78 591.842 1110.88 599.442C1108.28 610.342 1105.58 618.442 1102.78 623.542C1101.28 626.242 1099.48 630.542 1098.88 633.042C1098.28 635.542 1097.08 640.642 1096.18 644.342C1095.18 648.042 1094.68 652.442 1095.08 654.142C1095.68 657.142 1094.68 659.742 1091.48 663.342C1090.58 664.442 1089.88 666.442 1089.88 667.942C1089.98 669.342 1089.28 672.042 1088.28 673.742C1087.38 675.542 1086.68 677.842 1086.68 679.042C1086.68 680.242 1085.88 682.542 1084.98 684.342C1083.58 686.842 1083.18 689.942 1083.18 698.542C1083.18 709.542 1083.18 709.642 1078.98 718.242C1076.58 723.042 1074.68 728.142 1074.68 729.742C1074.68 731.242 1073.58 734.642 1072.18 737.242C1070.58 740.342 1069.68 743.542 1069.68 746.542C1069.68 753.842 1067.78 760.242 1064.58 763.342C1061.18 766.642 1060.78 771.142 1063.08 779.842C1064.98 786.842 1066.88 789.542 1071.38 791.742C1074.98 793.342 1080.88 798.142 1084.78 802.542C1086.78 804.742 1092.98 814.742 1093.98 817.342C1094.38 818.342 1095.28 819.042 1096.18 819.042C1096.98 819.042 1097.68 819.442 1097.68 819.842C1097.68 820.242 1098.88 821.342 1100.48 822.242C1101.98 823.142 1104.58 825.042 1106.18 826.442C1107.88 827.842 1109.78 829.042 1110.48 829.042C1111.08 829.042 1111.68 829.442 1111.68 830.042C1111.68 830.542 1112.28 831.042 1112.98 831.042C1116.48 831.042 1119.78 833.742 1120.78 837.442C1122.18 842.642 1122.28 847.042 1120.88 847.942C1120.28 848.342 1118.58 851.042 1117.28 854.042C1115.88 857.042 1113.68 861.342 1112.38 863.542C1108.98 869.242 1108.58 874.642 1110.68 882.442C1112.48 888.642 1112.48 889.642 1110.98 899.942C1109.28 911.642 1109.18 910.842 1114.28 934.742C1114.48 935.942 1115.78 938.042 1117.08 939.342C1122.18 944.442 1122.68 947.342 1119.68 953.542L1117.68 957.642L1119.88 963.542C1121.08 966.842 1122.78 970.842 1123.88 972.542C1124.88 974.142 1125.68 976.042 1125.68 976.742C1125.68 977.942 1131.38 987.742 1133.18 989.542C1133.78 990.142 1136.48 992.142 1139.18 994.042C1141.98 995.942 1144.28 997.742 1144.48 998.242C1145.48 1000.54 1155.68 997.642 1155.68 995.042C1155.68 994.242 1156.58 992.842 1157.68 992.042C1159.18 990.942 1159.68 989.442 1159.68 985.942C1159.68 983.242 1159.18 981.042 1158.58 980.842C1157.68 980.542 1157.78 979.742 1158.68 978.042C1160.68 974.242 1165.08 971.042 1168.18 971.042C1169.28 971.042 1169.68 969.942 1169.68 967.442C1169.68 964.742 1170.18 963.742 1171.68 963.342C1173.18 962.942 1173.68 961.942 1173.68 959.642C1173.68 955.542 1181.28 947.042 1184.98 947.042C1186.38 947.042 1187.68 946.642 1187.88 946.142C1188.08 945.642 1190.38 945.742 1193.38 946.342C1198.98 947.542 1205.78 946.042 1208.68 943.042C1209.48 942.242 1211.38 940.942 1212.98 940.142C1214.48 939.342 1215.68 937.942 1215.68 937.142C1215.68 936.242 1216.58 934.842 1217.68 934.042C1218.78 933.242 1219.68 931.942 1219.68 931.042C1219.68 930.142 1220.98 927.942 1222.68 926.042C1225.58 922.542 1225.58 922.442 1225.68 910.242C1225.68 902.742 1225.28 898.042 1224.68 898.042C1224.18 898.042 1223.68 897.442 1223.68 896.742C1223.68 895.942 1222.78 894.542 1221.68 893.542C1220.58 892.542 1219.68 891.142 1219.68 890.342C1219.68 889.642 1219.28 889.042 1218.68 889.042C1218.18 889.042 1216.38 887.642 1214.68 885.942C1211.88 882.942 1211.68 882.242 1211.68 874.942C1211.68 870.642 1212.18 866.842 1212.68 866.542C1213.28 866.242 1213.68 865.042 1213.68 863.942C1213.68 861.642 1215.48 858.142 1217.98 855.942C1218.98 855.042 1219.68 852.842 1219.68 850.842C1219.68 847.342 1217.78 842.042 1216.48 842.042C1215.98 842.042 1215.68 841.142 1215.68 840.042C1215.68 838.942 1215.28 838.042 1214.68 838.042C1214.18 838.042 1213.68 837.142 1213.68 836.042C1213.68 834.942 1213.28 834.042 1212.68 834.042C1212.18 834.042 1211.68 833.142 1211.68 832.042C1211.68 830.942 1211.28 830.042 1210.68 830.042C1210.18 830.042 1209.68 829.342 1209.68 828.542C1209.68 827.742 1209.38 827.042 1208.88 827.042C1208.48 827.042 1207.68 826.042 1207.18 824.742C1206.58 823.442 1205.18 822.442 1203.68 822.242C1199.68 821.742 1196.78 819.942 1190.78 814.042C1187.68 810.942 1184.38 808.142 1183.38 807.742C1182.48 807.442 1181.68 806.442 1181.68 805.542C1181.68 804.742 1181.28 804.042 1180.68 804.042C1180.08 804.042 1179.68 801.142 1179.68 797.442C1179.68 791.842 1179.28 790.342 1176.68 786.542C1173.68 782.142 1172.78 777.742 1174.68 776.542C1175.28 776.242 1175.68 773.742 1175.68 771.042C1175.68 768.342 1176.18 765.842 1176.68 765.542C1177.28 765.242 1177.68 764.042 1177.68 762.942C1177.68 761.942 1178.18 761.042 1178.68 761.042C1179.28 761.042 1179.68 759.942 1179.68 758.642C1179.68 757.242 1180.08 755.842 1180.68 755.542C1181.18 755.242 1181.68 754.042 1181.68 752.942C1181.68 751.942 1182.18 751.042 1182.68 751.042C1183.28 751.042 1183.68 750.142 1183.68 749.042C1183.68 747.942 1183.98 747.042 1184.48 747.042C1185.28 747.042 1187.68 742.242 1187.68 740.442C1187.68 739.442 1189.18 736.042 1192.78 728.842C1193.28 727.842 1193.68 726.042 1193.68 724.842C1193.68 723.442 1195.78 720.442 1198.68 717.342C1203.18 712.642 1203.68 711.642 1203.68 707.542C1203.68 705.042 1204.18 703.042 1204.68 703.042C1205.28 703.042 1205.68 701.942 1205.68 700.642C1205.68 699.242 1206.18 697.842 1206.68 697.542C1208.38 696.442 1207.78 691.042 1205.68 688.842C1204.08 687.142 1203.68 685.242 1203.68 680.442C1203.68 676.942 1204.18 673.842 1204.68 673.542C1205.28 673.242 1205.68 670.942 1205.68 668.542C1205.68 666.142 1205.28 663.842 1204.68 663.542C1204.18 663.242 1203.68 661.842 1203.68 660.542C1203.68 659.242 1203.28 657.842 1202.68 657.542C1202.18 657.242 1201.68 655.142 1201.68 652.942C1201.68 650.042 1200.98 648.242 1199.18 646.542C1197.88 645.142 1196.28 644.042 1195.68 644.042C1194.08 644.042 1191.68 641.442 1191.68 639.642C1191.68 638.842 1191.28 637.842 1190.68 637.542C1190.18 637.242 1189.68 635.842 1189.68 634.542C1189.68 633.242 1189.28 631.842 1188.68 631.542C1188.18 631.242 1187.68 629.542 1187.68 627.942C1187.68 626.342 1186.78 624.042 1185.68 622.842C1184.58 621.642 1183.68 619.742 1183.68 618.542C1183.68 617.442 1183.28 616.042 1182.78 615.442C1181.88 614.542 1181.18 610.342 1180.08 599.042C1179.78 596.042 1179.08 593.142 1178.58 592.542C1178.08 592.042 1177.68 590.142 1177.68 588.442C1177.68 586.642 1177.28 584.842 1176.68 584.542C1176.18 584.242 1175.68 582.642 1175.68 580.942C1175.68 579.342 1175.28 578.042 1174.68 578.042C1174.18 578.042 1173.68 576.642 1173.68 575.042C1173.68 573.342 1173.28 572.042 1172.68 572.042C1172.18 572.042 1171.68 571.142 1171.68 570.142C1171.68 569.042 1171.28 567.842 1170.68 567.542C1170.18 567.242 1169.68 565.842 1169.68 564.542C1169.68 563.242 1169.28 561.842 1168.68 561.542C1168.08 561.142 1167.68 554.742 1167.68 545.542C1167.68 536.342 1168.08 529.942 1168.68 529.542C1169.28 529.242 1169.68 526.942 1169.68 524.542C1169.68 522.142 1170.18 519.842 1170.68 519.542C1172.18 518.642 1171.98 488.042 1170.48 484.742C1169.78 483.242 1168.88 482.042 1168.48 482.042C1167.98 482.042 1167.68 480.942 1167.68 479.642C1167.68 478.242 1167.28 476.842 1166.68 476.542C1166.18 476.242 1165.68 474.442 1165.68 472.642C1165.68 469.242 1163.68 464.042 1162.48 464.042C1161.98 464.042 1161.68 462.842 1161.68 461.242C1161.58 459.242 1160.48 457.742 1157.08 455.242C1152.78 452.042 1152.48 451.942 1143.78 452.242C1134.98 452.542 1134.78 452.542 1132.28 449.542C1130.88 447.842 1129.68 445.942 1129.68 445.242C1129.68 444.342 1127.08 444.042 1120.18 444.042C1114.38 444.042 1109.78 443.542 1108.48 442.742C1104.98 440.842 1101.68 437.242 1101.68 435.542C1101.68 434.742 1101.28 434.042 1100.68 434.042C1100.18 434.042 1099.68 433.142 1099.68 432.042C1099.68 430.942 1099.28 430.042 1098.68 430.042C1098.18 430.042 1097.68 428.642 1097.68 427.042C1097.68 425.342 1097.28 424.042 1096.68 424.042C1096.18 424.042 1095.68 423.342 1095.68 422.542C1095.68 421.642 1094.08 419.342 1092.18 417.442L1088.58 413.942H1075.28C1061.18 413.942 1058.88 414.542 1054.18 419.342C1051.88 421.542 1050.78 421.842 1045.08 421.742C1041.48 421.742 1038.18 422.142 1037.88 422.642C1037.48 423.242 1035.58 424.342 1033.68 425.242C1031.78 426.142 1027.78 429.442 1024.78 432.442C1019.78 437.742 1019.18 438.042 1014.58 438.042C1011.88 438.042 1009.68 438.442 1009.68 439.042C1009.68 439.542 1008.98 440.042 1008.08 440.042C1007.18 440.042 1002.18 444.442 996.78 449.842C991.48 455.242 986.38 460.042 985.48 460.342C984.48 460.742 983.68 461.442 983.68 462.042C983.68 462.642 982.58 464.242 981.28 465.542C979.88 466.942 978.38 468.842 977.88 469.742C977.18 470.942 974.88 471.742 970.78 472.242C963.38 473.242 954.98 474.542 947.98 476.042C945.08 476.542 940.58 477.442 937.98 477.942C935.28 478.542 931.18 479.442 928.68 480.142C926.18 480.742 922.58 481.242 920.68 481.142C907.48 480.642 897.68 479.742 897.68 479.042C897.68 478.642 896.78 478.042 895.68 477.742C894.58 477.442 893.68 476.642 893.68 475.842C893.68 475.142 891.48 473.542 888.88 472.242C884.98 470.442 882.38 470.042 874.48 470.042C863.98 470.042 861.68 469.542 861.68 467.442C861.68 466.642 861.28 466.042 860.68 466.042C860.18 466.042 859.68 465.342 859.68 464.442C859.68 462.242 857.18 460.042 854.78 460.042C853.68 460.042 852.48 459.542 852.18 459.042C851.88 458.442 850.28 458.042 848.58 458.042C846.98 458.042 845.68 457.542 845.68 457.042C845.68 456.442 844.78 456.042 843.68 456.042C842.58 456.042 841.68 455.542 841.68 455.042C841.68 453.442 838.08 453.842 834.48 455.842C830.88 457.842 826.38 458.742 811.68 460.042C800.48 461.042 792.38 462.442 779.28 465.642C777.68 466.042 774.98 467.642 773.38 469.142C770.88 471.642 769.58 472.042 764.98 472.042C762.08 472.042 758.78 471.542 757.68 471.042C756.58 470.442 754.78 469.542 753.68 469.042C752.58 468.442 751.08 468.042 750.38 468.042C749.68 468.042 747.18 466.342 744.88 464.142C740.68 460.442 739.48 459.642 733.18 457.042C731.58 456.342 729.38 455.442 728.48 454.942C726.08 453.742 716.98 453.842 716.18 455.042C715.88 455.542 714.68 456.042 713.58 456.042C712.58 456.042 711.68 456.442 711.68 457.042C711.68 457.542 710.78 458.042 709.78 458.042C708.68 458.042 707.48 457.542 707.18 457.042C706.88 456.442 705.68 456.042 704.48 456.042C702.78 456.042 695.18 452.542 693.68 451.042C693.38 450.742 691.98 449.942 690.48 449.142C686.68 447.142 686.98 445.042 691.68 440.142C693.88 437.942 695.68 435.842 695.68 435.542C695.68 435.242 698.68 432.042 702.48 428.342C708.48 422.442 717.08 417.042 720.48 417.042C721.08 417.042 721.68 416.042 721.68 414.742C721.68 413.442 722.28 411.842 722.88 411.242C723.88 410.242 723.88 409.542 722.88 408.042C722.28 406.942 721.68 404.542 721.68 402.642C721.68 400.742 721.28 398.842 720.68 398.542C720.18 398.242 719.68 397.042 719.68 395.942C719.68 394.942 719.28 394.042 718.68 394.042C718.18 394.042 717.68 393.142 717.68 392.042C717.68 390.942 717.28 390.042 716.68 390.042C716.18 390.042 715.68 388.642 715.68 387.042C715.68 385.342 715.28 384.042 714.78 384.042C714.28 384.042 713.58 379.842 713.28 374.742C712.48 358.742 710.68 352.042 707.08 352.042C706.28 352.042 705.68 351.742 705.68 351.242C705.68 350.842 704.68 350.042 703.38 349.442C697.18 346.342 691.98 343.342 690.28 341.742C689.18 340.842 687.88 340.042 687.38 340.042C686.08 340.042 683.68 337.342 683.68 335.842C683.68 335.042 682.78 333.842 681.68 333.042C680.58 332.242 679.68 331.042 679.68 330.342C679.68 329.742 676.08 325.542 671.68 321.142C666.68 316.142 663.68 312.342 663.68 311.042C663.68 306.042 659.88 302.142 654.88 302.042C653.08 302.042 650.68 301.542 649.38 300.842C648.18 300.242 646.38 299.342 645.48 298.842C642.98 297.742 633.68 297.842 633.68 299.042C633.68 299.542 632.78 300.042 631.78 300.042C630.68 300.042 629.68 300.642 629.38 301.242C628.88 302.942 613.98 302.442 612.18 300.742C611.48 300.042 610.18 297.942 609.28 296.142C608.38 294.442 606.88 292.642 605.88 292.342C604.28 291.642 601.88 289.842 599.18 287.242C598.38 286.642 597.08 286.042 596.28 286.042C595.38 286.042 594.68 285.742 594.68 285.242C594.58 284.142 584.88 274.042 583.88 274.042C582.38 274.042 578.58 271.842 574.58 268.742C570.88 265.942 564.48 264.942 563.18 267.042C561.58 269.642 552.28 266.642 549.48 262.642C548.58 261.342 540.28 261.642 539.88 263.042C539.68 263.542 538.18 264.042 536.58 264.042C534.98 264.042 533.68 264.442 533.68 265.042C533.68 265.542 531.88 266.042 529.68 266.042C527.48 266.042 525.68 265.542 525.68 265.042C525.68 264.442 523.88 264.042 521.78 264.042C519.58 264.042 517.48 264.442 517.18 265.042C516.88 265.542 514.88 266.042 512.78 266.042C509.98 266.042 508.18 266.742 506.08 268.842C500.68 273.942 496.98 276.042 493.28 276.042C491.28 276.042 488.78 276.542 487.68 277.242C486.18 278.242 484.78 278.242 481.18 277.242C478.68 276.542 473.28 276.042 469.28 276.042C465.18 276.042 461.68 275.642 461.48 275.142C461.38 274.742 459.08 274.042 456.48 273.642C452.08 272.942 451.68 273.142 448.28 276.542C446.38 278.442 444.28 280.042 443.68 280.042C443.08 280.042 441.68 280.942 440.48 282.042C439.28 283.142 437.68 284.042 436.98 284.042C436.28 284.042 435.68 284.442 435.68 285.042C435.68 285.542 434.98 286.042 434.18 286.042C433.38 286.042 431.18 286.942 429.28 287.942C426.28 289.642 425.78 289.742 425.28 288.342C424.88 287.442 425.08 286.242 425.68 285.542C428.28 282.342 421.88 278.242 418.98 281.142C418.18 281.942 417.68 281.942 417.28 281.142C416.88 280.542 415.08 280.042 413.38 280.042C411.58 280.042 409.38 279.342 408.38 278.642C406.58 277.242 406.68 276.942 409.88 270.842C413.48 264.042 415.68 261.342 419.98 258.742C421.78 257.542 422.68 256.142 422.68 254.542C422.68 253.142 423.18 252.042 423.68 252.042C424.28 252.042 424.68 250.942 424.68 249.642C424.68 248.242 425.18 246.842 425.68 246.542C426.28 246.242 426.68 244.842 426.68 243.442C426.68 239.842 439.28 225.942 443.88 224.542C446.48 223.742 459.68 214.242 459.68 213.142C459.68 212.742 461.58 211.942 463.98 211.242C466.28 210.642 469.48 208.942 471.08 207.542C472.68 206.142 474.58 205.042 475.38 205.042C478.58 205.042 487.88 196.542 490.58 191.042C494.88 182.542 499.78 173.842 501.88 171.142C502.88 169.842 503.68 168.442 503.68 167.942C503.68 167.542 505.38 165.442 507.58 163.342C512.78 158.142 514.18 155.542 515.68 148.442C516.68 143.342 516.68 141.442 515.28 136.242C513.88 130.442 513.88 129.742 515.78 121.842C517.78 114.042 520.88 108.242 524.68 105.342C525.78 104.442 526.18 102.142 526.18 95.3418C526.18 90.0418 526.88 84.3418 527.88 81.0418C529.38 75.9418 530.58 69.3418 532.68 54.8418C533.28 50.6418 534.28 48.1418 536.38 45.7418C537.88 43.9418 539.78 40.7418 540.38 38.5418C541.08 36.3418 542.18 32.5418 542.88 30.0418C543.98 26.2418 544.88 25.2418 548.18 23.6418C554.28 20.8418 555.68 19.2418 555.68 14.8418C555.68 5.14178 546.68 -2.45822 538.98 0.741782Z" fill="#535354"/>
</svg>
