<svg width="29" height="40" viewBox="0 0 29 40" fill="none" xmlns="http://www.w3.org/2000/svg">
<path d="M14.0625 0C6.30844 0 0 6.30844 0 14.0625C0 16.6823 0.725703 19.2391 2.09914 21.4572L13.262 39.446C13.4759 39.7906 13.8526 40 14.2577 40C14.2609 40 14.2639 40 14.267 40C14.6757 39.9968 15.0532 39.7809 15.2631 39.4303L26.1415 21.2672C27.4391 19.0959 28.125 16.6046 28.125 14.0625C28.125 6.30844 21.8166 0 14.0625 0ZM24.1302 20.0639L14.24 36.577L4.09117 20.2223C2.94797 18.3761 2.32813 16.2461 2.32813 14.0625C2.32813 7.60078 7.60078 2.32812 14.0625 2.32812C20.5242 2.32812 25.7891 7.60078 25.7891 14.0625C25.7891 16.1813 25.2101 18.2569 24.1302 20.0639Z" fill="#BBB9B9"/>
<path d="M14.0625 7.03125C10.1855 7.03125 7.03125 10.1855 7.03125 14.0625C7.03125 17.9148 10.1341 21.0938 14.0625 21.0938C18.0393 21.0938 21.0938 17.8724 21.0938 14.0625C21.0938 10.1855 17.9395 7.03125 14.0625 7.03125ZM14.0625 18.7656C11.4643 18.7656 9.35938 16.6537 9.35938 14.0625C9.35938 11.4778 11.4778 9.35938 14.0625 9.35938C16.6472 9.35938 18.7578 11.4778 18.7578 14.0625C18.7578 16.6159 16.7019 18.7656 14.0625 18.7656Z" fill="#BBB9B9"/>
</svg>
