<svg width="40" height="40" viewBox="0 0 40 40" fill="none" xmlns="http://www.w3.org/2000/svg">
<circle cx="20" cy="20" r="20" fill="#BBB9B9"/>
<path d="M20.1562 30.5711L26.5389 19.9143L20.1562 30.5711ZM20.1562 30.5711L13.6067 20.0166C12.8685 18.8245 12.4688 17.4499 12.4688 16.0416C12.4688 11.8719 15.8719 8.46871 20.0417 8.46871C24.2112 8.46871 27.6094 11.8717 27.6094 16.0416C27.6094 17.4086 27.2359 18.748 26.539 19.9141L20.1562 30.5711ZM11.8536 21.103L11.8537 21.1032L19.2956 33.0958C19.4838 33.399 19.8153 33.5833 20.1718 33.5833H20.1719H20.1719H20.1719H20.1719H20.172H20.172H20.172H20.172H20.1721H20.1721H20.1721H20.1721H20.1722H20.1722H20.1722H20.1722H20.1723H20.1723H20.1723H20.1723H20.1724H20.1724H20.1724H20.1724H20.1725H20.1725H20.1725H20.1725H20.1725H20.1726H20.1726H20.1726H20.1726H20.1727H20.1727H20.1727H20.1727H20.1728H20.1728H20.1728H20.1728H20.1729H20.1729H20.1729H20.1729H20.173H20.173H20.173H20.173H20.1731H20.1731H20.1731H20.1731H20.1732H20.1732H20.1732H20.1732H20.1733H20.1733H20.1733H20.1733H20.1733H20.1734H20.1734H20.1734H20.1734H20.1735H20.1735H20.1735H20.1735H20.1736H20.1736H20.1736H20.1736H20.1737H20.1737H20.1737H20.1737H20.1738H20.1738H20.1738H20.1738H20.1739H20.1739H20.1739H20.1739H20.174H20.174H20.174H20.174H20.174H20.1741H20.1741H20.1741H20.1741H20.1742H20.1742H20.1742H20.1742H20.1743H20.1743H20.1743H20.1743H20.1744H20.1744H20.1744H20.1744H20.1745H20.1745H20.1745H20.1745H20.1746H20.1746H20.1746H20.1746H20.1747H20.1747H20.1747H20.1747H20.1747H20.1748H20.1748H20.1748H20.1748H20.1749H20.1749H20.1749H20.1749H20.175H20.175H20.175H20.175H20.1751H20.1751H20.1751H20.1751H20.1752H20.1752H20.1752H20.1752H20.1753H20.1753H20.1753H20.1753H20.1754H20.1754H20.1754H20.1754H20.1754H20.1755H20.1755H20.1755H20.1755H20.1756H20.1756H20.1756H20.1756H20.1757H20.1757H20.1757H20.1757H20.1758H20.1758H20.1758H20.1758H20.1759H20.1759H20.1759H20.1759H20.176H20.176H20.176H20.176H20.1761H20.1761H20.1761H20.1761H20.1761H20.1762H20.1762H20.1762H20.1762H20.1763H20.1763H20.1763H20.1763H20.1764H20.1764H20.1764H20.1764H20.1765H20.1765H20.1765H20.1765H20.1766H20.1766H20.1766H20.1766H20.1767H20.1767H20.1767H20.1767H20.1768H20.1768H20.1768H20.1768H20.1769H20.1769H20.1769H20.1769H20.1769H20.177H20.177H20.177H20.177H20.1771H20.1771H20.1771H20.1771H20.1772H20.1772H20.1772H20.1772H20.1773H20.1773H20.1773H20.1773H20.1774H20.1774H20.1774H20.1774H20.1775H20.1775H20.1775H20.1775H20.1776H20.1776H20.1776H20.1776H20.1777H20.1777H20.1777H20.1777H20.1777H20.1778H20.1778H20.1778H20.1778H20.1779H20.1779H20.1779H20.1779H20.178H20.178H20.178L20.178 33.5833L20.18 33.5833C20.5396 33.5805 20.8718 33.3905 21.0566 33.0819L28.3088 20.9732L28.3089 20.973C29.1973 19.4865 29.6667 17.7813 29.6667 16.0416C29.6667 10.7342 25.3491 6.41663 20.0417 6.41663C14.7342 6.41663 10.4167 10.7342 10.4167 16.0416C10.4167 17.8345 10.9133 19.5846 11.8536 21.103Z" fill="#141416" stroke="#141416" stroke-width="0.5"/>
<path d="M20.0417 11.1041C17.3189 11.1041 15.1042 13.3189 15.1042 16.0416C15.1042 18.7461 17.2829 20.9791 20.0417 20.9791C22.8348 20.9791 24.9792 18.7158 24.9792 16.0416C24.9792 13.3189 22.7644 11.1041 20.0417 11.1041ZM20.0417 18.927C18.4479 18.927 17.1563 17.6312 17.1563 16.0416C17.1563 14.4566 18.4566 13.1562 20.0417 13.1562C21.6262 13.1562 22.9219 14.456 22.9219 16.0416C22.9219 17.6093 21.6597 18.927 20.0417 18.927Z" fill="#141416" stroke="#141416" stroke-width="0.5"/>
</svg>
