<svg width="40" height="40" viewBox="0 0 60 60" fill="none" xmlns="http://www.w3.org/2000/svg">
<circle cx="30" cy="30" r="30" fill="#BBB9B9"/>
<path d="M30.0625 10C22.3084 10 16 16.3084 16 24.0625C16 26.6823 16.7257 29.2391 18.0991 31.4572L29.262 49.446C29.4759 49.7906 29.8526 50 30.2577 50C30.2609 50 30.2639 50 30.267 50C30.6757 49.9968 31.0532 49.7809 31.2631 49.4303L42.1415 31.2672C43.4391 29.0959 44.125 26.6046 44.125 24.0625C44.125 16.3084 37.8166 10 30.0625 10ZM40.1302 30.0639L30.24 46.577L20.0912 30.2223C18.948 28.3761 18.3281 26.2461 18.3281 24.0625C18.3281 17.6008 23.6008 12.3281 30.0625 12.3281C36.5242 12.3281 41.7891 17.6008 41.7891 24.0625C41.7891 26.1813 41.2101 28.2569 40.1302 30.0639Z" fill="#FFFBFB"/>
<path d="M30.0625 17.0312C26.1855 17.0312 23.0312 20.1855 23.0312 24.0625C23.0312 27.9148 26.1341 31.0938 30.0625 31.0938C34.0393 31.0938 37.0938 27.8724 37.0938 24.0625C37.0938 20.1855 33.9395 17.0312 30.0625 17.0312ZM30.0625 28.7656C27.4643 28.7656 25.3594 26.6537 25.3594 24.0625C25.3594 21.4778 27.4778 19.3594 30.0625 19.3594C32.6472 19.3594 34.7578 21.4778 34.7578 24.0625C34.7578 26.6159 32.7019 28.7656 30.0625 28.7656Z" fill="#FFFBFB"/>
</svg>
