<svg width="1810" height="431" viewBox="0 0 1810 431" fill="none" xmlns="http://www.w3.org/2000/svg">
<g clip-path="url(#clip0)">
<path d="M1810 0H0V431H1810V0Z" fill="#141416"/>
<path d="M1485.51 221L1472.68 260.697L1375.39 228.849L1485.51 221Z" fill="#272729"/>
<path d="M1485.51 221L1505 431H1417.7L1485.51 221Z" fill="#272729"/>
<path d="M1375.4 228.849L1418.73 430.958H1367L1375.4 228.849Z" fill="#272729"/>
<path d="M1375.39 228.849L1472.68 260.698L1418.33 429.147L1375.39 228.849Z" fill="#272729"/>
<path d="M1593.91 266L1582.66 297.191L1497.36 272.167L1593.91 266Z" fill="#272729" fill-opacity="0.63"/>
<path d="M1593.91 266L1611 431H1534.45L1593.91 266Z" fill="#272729" fill-opacity="0.63"/>
<path d="M1497.36 272.167L1535.36 430.967H1490L1497.36 272.167Z" fill="#272729" fill-opacity="0.63"/>
<path d="M1497.36 272.167L1582.66 297.191L1535.01 429.544L1497.36 272.167Z" fill="#272729" fill-opacity="0.63"/>
<path d="M1279 272L1268.98 303L1193 278.129L1279 272Z" fill="#272729" fill-opacity="0.63"/>
<path d="M1278.6 272L1294 437H1225L1278.6 272Z" fill="#202022"/>
<path d="M1193.65 278L1228 437H1187L1193.65 278Z" fill="#202022"/>
<path d="M1193 278L1269 303.123L1226.55 436L1193 278Z" fill="#202022"/>
<path d="M1220.5 332L1216.94 341.104L1154.99 336L1220.5 332Z" fill="#272729"/>
<path d="M1220.42 332L1232 431H1180.13L1220.42 332Z" fill="#272729"/>
<path d="M1154.99 335.7L1180.74 430.98H1150L1154.99 335.7Z" fill="#272729"/>
<path d="M1154.99 335.7L1217.5 341L1180.5 430.126L1154.99 335.7Z" fill="#272729"/>
<path d="M1153.42 371L1150 376.5L1087.99 373.243L1153.42 371Z" fill="#202022"/>
<path d="M1153.42 371L1165 431H1113.13L1153.42 371Z" fill="#202022"/>
<path d="M1087.99 373.243L1113.74 430.988H1083L1087.99 373.243Z" fill="#202022"/>
<path d="M1087.99 373.243L1150 376.5L1113.5 430.471L1087.99 373.243Z" fill="#202022"/>
<path d="M1658.46 306L1653.8 317.116L1570.69 310.672L1658.46 306Z" fill="#272729"/>
<path d="M1658.47 306L1674 431H1604.41L1658.47 306Z" fill="#272729"/>
<path d="M1570.69 310.671L1605.24 430.975H1564L1570.69 310.671Z" fill="#272729"/>
<path d="M1570.69 310.671L1654 317L1604.92 429.896L1570.69 310.671Z" fill="#272729"/>
<path d="M1365.46 320L1360.8 331.116L1277.69 324.672L1365.46 320Z" fill="#272729"/>
<path d="M1365.47 320L1381 445H1311.41L1365.47 320Z" fill="#272729"/>
<path d="M1277.69 324.671L1312.24 444.975H1271L1277.69 324.671Z" fill="#272729"/>
<path d="M1277.69 324.671L1361 331L1311.92 443.896L1277.69 324.671Z" fill="#272729"/>
<path d="M1768.06 231L1762.5 249.5L1666.73 238.475L1768.06 231Z" fill="#202022"/>
<path d="M1768.07 231L1786 431H1705.66L1768.07 231Z" fill="#202022"/>
<path d="M1666.73 238.474L1706.61 430.959H1659L1666.73 238.474Z" fill="#202022"/>
<path d="M1666.73 238.474L1762.5 249L1706.24 429.234L1666.73 238.474Z" fill="#202022"/>
<path d="M182.557 125L395.5 431H1L182.557 125Z" fill="#272729" fill-opacity="0.63"/>
<path d="M408.697 192L551.5 431H268.5L408.697 192Z" fill="#272729"/>
<path d="M738.015 250L846 431H632L738.015 250Z" fill="#272729"/>
<path d="M862.503 157L1026.5 431H701.5L862.503 157Z" fill="#272729" fill-opacity="0.63"/>
<path d="M602.563 167L760 431H448L602.563 167Z" fill="#272729" fill-opacity="0.63"/>
</g>
<defs>
<clipPath id="clip0">
<rect width="1810" height="431" fill="white"/>
</clipPath>
</defs>
</svg>
