<svg width="762" height="596" viewBox="0 0 762 596" fill="none" xmlns="http://www.w3.org/2000/svg">
<path d="M547 198L761.181 595.711H337.787L547 198Z" fill="#5067A3"/>
<path d="M292.979 45L585.958 595H0L292.979 45Z" fill="#5972B7"/>
<line x1="294.562" y1="43.2983" x2="308.98" y2="16.9902" stroke="#BBB9B9" stroke-linejoin="round"/>
<path d="M312.752 8.884H311.324V13H310.274V3.2H313.074C314.119 3.2 314.875 3.42867 315.342 3.886C315.818 4.34333 316.056 5.05733 316.056 6.028C316.056 6.98933 315.767 7.708 315.188 8.184C314.609 8.65067 313.797 8.884 312.752 8.884ZM312.598 4.096H311.324V7.988H312.248C313.209 7.988 313.909 7.84333 314.348 7.554C314.787 7.26467 315.006 6.77 315.006 6.07C315.006 5.36067 314.815 4.85667 314.432 4.558C314.049 4.25 313.438 4.096 312.598 4.096ZM317.652 13V6H318.702V13H317.652ZM318.702 3.2V4.446H317.652V3.2H318.702ZM321.034 13V3.2H322.084V13H321.034ZM327.653 8.814H328.227C328.227 7.96467 328.12 7.414 327.905 7.162C327.691 6.90067 327.215 6.77 326.477 6.77C325.74 6.77 325.115 6.868 324.601 7.064L324.405 6.252C325.189 5.99067 326.001 5.86 326.841 5.86C328.484 5.86 329.305 6.68133 329.305 8.324V13H328.689L328.325 12.174C327.896 12.5287 327.523 12.7713 327.205 12.902C326.897 13.0233 326.538 13.084 326.127 13.084C325.474 13.084 324.965 12.8927 324.601 12.51C324.237 12.118 324.055 11.6047 324.055 10.97C324.055 9.53267 325.255 8.814 327.653 8.814ZM328.241 9.696H327.611C326.659 9.696 326.001 9.78933 325.637 9.976C325.283 10.1627 325.105 10.4567 325.105 10.858C325.105 11.25 325.208 11.572 325.413 11.824C325.619 12.076 325.885 12.202 326.211 12.202C326.547 12.202 326.865 12.1273 327.163 11.978C327.471 11.8193 327.831 11.5487 328.241 11.166V9.696ZM332.016 11.488V6.84H331.064V6H332.03V3.998H333.08V6H334.788V6.84H333.066V11.292C333.066 11.9173 333.384 12.23 334.018 12.23C334.168 12.23 334.396 12.202 334.704 12.146L334.858 12.902C334.476 13.0233 334.079 13.084 333.668 13.084C333.267 13.084 332.889 12.9627 332.534 12.72C332.189 12.468 332.016 12.0573 332.016 11.488ZM340.692 11.222V6H341.756V13H341.14L340.79 12.174C340.043 12.7807 339.329 13.084 338.648 13.084C337.967 13.084 337.444 12.888 337.08 12.496C336.725 12.0947 336.548 11.53 336.548 10.802V6H337.598V10.634C337.598 11.1847 337.677 11.5813 337.836 11.824C338.004 12.0667 338.275 12.188 338.648 12.188C339.031 12.188 339.418 12.0853 339.81 11.88C340.202 11.6747 340.496 11.4553 340.692 11.222ZM344.037 11.754C344.644 12.034 345.223 12.174 345.773 12.174C346.324 12.174 346.739 12.0667 347.019 11.852C347.309 11.628 347.453 11.334 347.453 10.97C347.453 10.606 347.332 10.326 347.089 10.13C346.847 9.92467 346.548 9.766 346.193 9.654C345.848 9.542 345.498 9.42067 345.143 9.29C344.798 9.15933 344.504 8.96333 344.261 8.702C344.019 8.44067 343.897 8.10933 343.897 7.708C343.897 7.12 344.089 6.66733 344.471 6.35C344.854 6.02333 345.372 5.86 346.025 5.86C346.679 5.86 347.285 5.958 347.845 6.154L347.943 6.196L347.761 7.092C347.201 6.87733 346.679 6.77 346.193 6.77C345.717 6.77 345.391 6.84467 345.213 6.994C345.036 7.14333 344.947 7.39533 344.947 7.75C344.947 7.974 345.069 8.16533 345.311 8.324C345.554 8.48267 345.848 8.62267 346.193 8.744C346.548 8.856 346.898 8.99133 347.243 9.15C347.598 9.29933 347.897 9.528 348.139 9.836C348.382 10.144 348.503 10.522 348.503 10.97C348.503 11.6233 348.275 12.1413 347.817 12.524C347.36 12.8973 346.73 13.084 345.927 13.084C345.125 13.084 344.411 12.902 343.785 12.538L344.037 11.754Z" fill="#BBB9B9"/>
<line x1="547.562" y1="195.298" x2="561.98" y2="168.99" stroke="#BBB9B9" stroke-linejoin="round"/>
<path d="M565.192 160.394H564.324V164.986H563.274V155.186H566.102C567.054 155.186 567.768 155.405 568.244 155.844C568.729 156.273 568.972 156.889 568.972 157.692C568.972 158.252 568.776 158.765 568.384 159.232C568.001 159.699 567.525 159.969 566.956 160.044C567.413 160.147 567.735 160.296 567.922 160.492C568.118 160.679 568.347 161.085 568.608 161.71L569.994 164.986H568.888L567.53 161.85C567.278 161.262 566.993 160.875 566.676 160.688C566.368 160.492 565.873 160.394 565.192 160.394ZM566.046 156.082H564.324V159.498H565.906C566.485 159.498 566.942 159.33 567.278 158.994C567.623 158.649 567.796 158.215 567.796 157.692C567.796 157.169 567.642 156.773 567.334 156.502C567.026 156.222 566.597 156.082 566.046 156.082ZM571.514 165V158H572.564V165H571.514ZM572.564 155.2V156.446H571.514V155.2H572.564ZM578.871 164.258C578.087 164.818 577.373 165.098 576.729 165.098C575.049 165.098 574.209 163.889 574.209 161.472C574.209 160.1 574.508 159.139 575.105 158.588C575.637 158.103 576.281 157.86 577.037 157.86C577.802 157.86 578.442 158.205 578.955 158.896L579.319 157.986H579.935V165.35C579.935 166.367 579.683 167.123 579.179 167.618C578.675 168.113 577.994 168.36 577.135 168.36C576.696 168.36 576.304 168.304 575.959 168.192C575.614 168.08 575.254 167.954 574.881 167.814L575.077 167.072C575.861 167.324 576.514 167.45 577.037 167.45C577.569 167.45 578.008 167.287 578.353 166.96C578.698 166.633 578.871 166.139 578.871 165.476V164.258ZM578.871 163.25V160.632C578.871 160.081 578.689 159.633 578.325 159.288C577.961 158.943 577.588 158.77 577.205 158.77C576.477 158.77 575.968 158.985 575.679 159.414C575.39 159.834 575.245 160.511 575.245 161.444C575.245 163.273 575.758 164.188 576.785 164.188C577.457 164.188 578.152 163.875 578.871 163.25ZM582.287 165V158H583.337V165H582.287ZM583.337 155.2V156.446H582.287V155.2H583.337Z" fill="#BBB9B9"/>
<path d="M293 45L347 146.5L254.5 117L293 45Z" fill="#FFFBFB"/>
<path d="M547 198L597.5 291L512 264.5L547 198Z" fill="#FFFBFB"/>
</svg>
