<svg width="762" height="596" viewBox="0 0 762 596" fill="none" xmlns="http://www.w3.org/2000/svg">
<path d="M547 198L761.181 595.711H337.787L547 198Z" fill="#5067A3"/>
<path d="M292.979 45L585.958 595H0L292.979 45Z" fill="#5972B7"/>
<line x1="294.562" y1="43.2983" x2="308.98" y2="16.9902" stroke="#BBB9B9" stroke-linejoin="round"/>
<path d="M316.711 7.91797C316.711 8.92969 316.365 9.70898 315.672 10.2559C314.984 10.7982 313.997 11.0693 312.712 11.0693H311.536V15H310.374V5.00586H312.965C315.462 5.00586 316.711 5.97656 316.711 7.91797ZM311.536 10.0713H312.582C313.612 10.0713 314.357 9.90495 314.817 9.57227C315.278 9.23958 315.508 8.70638 315.508 7.97266C315.508 7.31185 315.291 6.81966 314.858 6.49609C314.425 6.17253 313.751 6.01074 312.835 6.01074H311.536V10.0713ZM319.773 15H318.639V7.50781H319.773V15ZM318.543 5.47754C318.543 5.21777 318.607 5.02865 318.734 4.91016C318.862 4.78711 319.021 4.72559 319.213 4.72559C319.395 4.72559 319.552 4.78711 319.685 4.91016C319.817 5.0332 319.883 5.22233 319.883 5.47754C319.883 5.73275 319.817 5.92415 319.685 6.05176C319.552 6.1748 319.395 6.23633 319.213 6.23633C319.021 6.23633 318.862 6.1748 318.734 6.05176C318.607 5.92415 318.543 5.73275 318.543 5.47754ZM323.314 15H322.18V4.36328H323.314V15ZM330.328 15L330.103 13.9336H330.048C329.674 14.403 329.3 14.722 328.927 14.8906C328.558 15.0547 328.095 15.1367 327.539 15.1367C326.796 15.1367 326.213 14.9453 325.789 14.5625C325.37 14.1797 325.16 13.6351 325.16 12.9287C325.16 11.4157 326.37 10.6227 328.79 10.5498L330.062 10.5088V10.0439C330.062 9.45605 329.934 9.02311 329.679 8.74512C329.428 8.46257 329.025 8.32129 328.469 8.32129C327.844 8.32129 327.138 8.5127 326.35 8.89551L326.001 8.02734C326.37 7.82682 326.773 7.6696 327.211 7.55566C327.653 7.44173 328.095 7.38477 328.537 7.38477C329.43 7.38477 330.091 7.58301 330.52 7.97949C330.952 8.37598 331.169 9.01172 331.169 9.88672V15H330.328ZM327.765 14.2002C328.471 14.2002 329.025 14.0065 329.426 13.6191C329.831 13.2318 330.034 12.6895 330.034 11.9922V11.3154L328.899 11.3633C327.997 11.3952 327.345 11.5365 326.944 11.7871C326.548 12.0332 326.35 12.4183 326.35 12.9424C326.35 13.3525 326.473 13.6647 326.719 13.8789C326.969 14.0931 327.318 14.2002 327.765 14.2002ZM335.934 14.2002C336.134 14.2002 336.328 14.1865 336.515 14.1592C336.701 14.1273 336.85 14.0954 336.959 14.0635V14.9316C336.836 14.9909 336.654 15.0387 336.412 15.0752C336.175 15.1162 335.961 15.1367 335.77 15.1367C334.32 15.1367 333.596 14.3734 333.596 12.8467V8.38965H332.522V7.84277L333.596 7.37109L334.074 5.77148H334.73V7.50781H336.904V8.38965H334.73V12.7988C334.73 13.25 334.838 13.5964 335.052 13.8379C335.266 14.0794 335.56 14.2002 335.934 14.2002ZM339.529 7.50781V12.3682C339.529 12.9788 339.668 13.4346 339.946 13.7354C340.224 14.0361 340.66 14.1865 341.252 14.1865C342.036 14.1865 342.608 13.9723 342.968 13.5439C343.332 13.1156 343.515 12.416 343.515 11.4453V7.50781H344.649V15H343.713L343.549 13.9951H343.487C343.255 14.3643 342.931 14.6468 342.517 14.8428C342.106 15.0387 341.637 15.1367 341.108 15.1367C340.197 15.1367 339.513 14.9202 339.058 14.4873C338.606 14.0544 338.381 13.3617 338.381 12.4092V7.50781H339.529ZM351.896 12.9561C351.896 13.6533 351.636 14.1911 351.116 14.5693C350.597 14.9476 349.868 15.1367 348.929 15.1367C347.935 15.1367 347.16 14.9795 346.604 14.665V13.6123C346.965 13.7946 347.35 13.9382 347.76 14.043C348.174 14.1478 348.573 14.2002 348.956 14.2002C349.549 14.2002 350.004 14.1068 350.323 13.9199C350.642 13.7285 350.802 13.4391 350.802 13.0518C350.802 12.7601 350.674 12.5117 350.419 12.3066C350.168 12.097 349.676 11.8509 348.942 11.5684C348.245 11.3086 347.748 11.083 347.452 10.8916C347.16 10.6956 346.942 10.4746 346.796 10.2285C346.655 9.98242 346.584 9.68848 346.584 9.34668C346.584 8.736 346.832 8.25521 347.329 7.9043C347.826 7.54883 348.507 7.37109 349.373 7.37109C350.18 7.37109 350.968 7.53516 351.738 7.86328L351.335 8.78613C350.583 8.47624 349.902 8.32129 349.291 8.32129C348.753 8.32129 348.348 8.4056 348.074 8.57422C347.801 8.74284 347.664 8.97526 347.664 9.27148C347.664 9.47201 347.714 9.6429 347.814 9.78418C347.919 9.92546 348.086 10.0599 348.313 10.1875C348.541 10.3151 348.979 10.4997 349.626 10.7412C350.515 11.0648 351.114 11.3906 351.424 11.7188C351.738 12.0469 351.896 12.4593 351.896 12.9561Z" fill="#BBB9B9"/>
<line x1="547.562" y1="195.298" x2="561.98" y2="168.99" stroke="#BBB9B9" stroke-linejoin="round"/>
<path d="M564.536 162.844V167H563.374V157.006H566.115C567.341 157.006 568.246 157.241 568.829 157.71C569.417 158.179 569.711 158.886 569.711 159.829C569.711 161.151 569.041 162.044 567.701 162.509L570.415 167H569.041L566.621 162.844H564.536ZM564.536 161.846H566.129C566.949 161.846 567.551 161.684 567.934 161.36C568.316 161.032 568.508 160.542 568.508 159.891C568.508 159.23 568.312 158.754 567.92 158.462C567.533 158.17 566.908 158.024 566.047 158.024H564.536V161.846ZM572.992 167H571.857V159.508H572.992V167ZM571.762 157.478C571.762 157.218 571.826 157.029 571.953 156.91C572.081 156.787 572.24 156.726 572.432 156.726C572.614 156.726 572.771 156.787 572.903 156.91C573.035 157.033 573.102 157.222 573.102 157.478C573.102 157.733 573.035 157.924 572.903 158.052C572.771 158.175 572.614 158.236 572.432 158.236C572.24 158.236 572.081 158.175 571.953 158.052C571.826 157.924 571.762 157.733 571.762 157.478ZM581.53 159.508V160.226L580.143 160.39C580.27 160.549 580.384 160.759 580.484 161.019C580.585 161.274 580.635 161.563 580.635 161.887C580.635 162.62 580.384 163.206 579.883 163.644C579.382 164.081 578.693 164.3 577.818 164.3C577.595 164.3 577.385 164.282 577.189 164.245C576.706 164.5 576.465 164.822 576.465 165.209C576.465 165.414 576.549 165.567 576.718 165.667C576.886 165.763 577.176 165.811 577.586 165.811H578.912C579.723 165.811 580.345 165.981 580.778 166.323C581.216 166.665 581.435 167.162 581.435 167.813C581.435 168.643 581.102 169.274 580.437 169.707C579.771 170.145 578.8 170.363 577.524 170.363C576.545 170.363 575.788 170.181 575.255 169.816C574.726 169.452 574.462 168.937 574.462 168.271C574.462 167.816 574.608 167.422 574.899 167.089C575.191 166.756 575.601 166.531 576.13 166.412C575.938 166.326 575.777 166.191 575.645 166.009C575.517 165.826 575.453 165.615 575.453 165.373C575.453 165.1 575.526 164.86 575.672 164.655C575.818 164.45 576.048 164.252 576.362 164.061C575.975 163.901 575.658 163.63 575.412 163.247C575.171 162.864 575.05 162.427 575.05 161.935C575.05 161.114 575.296 160.483 575.788 160.041C576.28 159.594 576.978 159.371 577.88 159.371C578.272 159.371 578.625 159.417 578.939 159.508H581.53ZM575.556 168.258C575.556 168.663 575.727 168.971 576.068 169.181C576.41 169.39 576.9 169.495 577.538 169.495C578.491 169.495 579.195 169.352 579.65 169.064C580.111 168.782 580.341 168.397 580.341 167.909C580.341 167.504 580.215 167.221 579.965 167.062C579.714 166.907 579.243 166.829 578.55 166.829H577.189C576.674 166.829 576.273 166.952 575.986 167.198C575.699 167.444 575.556 167.798 575.556 168.258ZM576.171 161.907C576.171 162.431 576.319 162.828 576.615 163.097C576.911 163.366 577.324 163.5 577.853 163.5C578.96 163.5 579.514 162.962 579.514 161.887C579.514 160.761 578.953 160.198 577.832 160.198C577.299 160.198 576.889 160.342 576.602 160.629C576.314 160.916 576.171 161.342 576.171 161.907ZM584.203 167H583.068V159.508H584.203V167ZM582.973 157.478C582.973 157.218 583.036 157.029 583.164 156.91C583.292 156.787 583.451 156.726 583.643 156.726C583.825 156.726 583.982 156.787 584.114 156.91C584.246 157.033 584.312 157.222 584.312 157.478C584.312 157.733 584.246 157.924 584.114 158.052C583.982 158.175 583.825 158.236 583.643 158.236C583.451 158.236 583.292 158.175 583.164 158.052C583.036 157.924 582.973 157.733 582.973 157.478Z" fill="#BBB9B9"/>
<path d="M293 45L347 146.5L254.5 117L293 45Z" fill="#FFFBFB"/>
<path d="M547 198L597.5 291L512 264.5L547 198Z" fill="#FFFBFB"/>
</svg>
