<svg width="1810" height="431" viewBox="0 0 1810 431" fill="none" xmlns="http://www.w3.org/2000/svg">
<rect width="1810" height="431" fill="#141416"/>
<g opacity="0.2">
<path d="M1485.51 221L1472.68 260.697L1375.39 228.849L1485.51 221Z" fill="#272729"/>
<path d="M1485.51 221L1505 431H1417.7L1485.51 221Z" fill="#272729"/>
<path d="M1375.4 228.849L1418.73 430.958H1367L1375.4 228.849Z" fill="#272729"/>
<path d="M1375.39 228.849L1472.68 260.698L1418.33 429.147L1375.39 228.849Z" fill="#272729"/>
</g>
<g opacity="0.2">
<path d="M1593.91 266L1582.66 297.191L1497.36 272.167L1593.91 266Z" fill="#272729" fill-opacity="0.63"/>
<path d="M1593.91 266L1611 431H1534.45L1593.91 266Z" fill="#272729" fill-opacity="0.63"/>
<path d="M1497.36 272.167L1535.36 430.967H1490L1497.36 272.167Z" fill="#272729" fill-opacity="0.63"/>
<path d="M1497.36 272.167L1582.66 297.191L1535.01 429.544L1497.36 272.167Z" fill="#272729" fill-opacity="0.63"/>
</g>
<g opacity="0.2">
<path d="M1220.42 331L1216.94 339.804L1154.99 334.7L1220.42 331Z" fill="#272729"/>
<path d="M1220.42 331L1232 430H1180.13L1220.42 331Z" fill="#272729"/>
<path d="M1154.99 334.7L1180.74 429.98H1150L1154.99 334.7Z" fill="#272729"/>
<path d="M1154.99 334.7L1216.73 339.97L1180.5 429.126L1154.99 334.7Z" fill="#272729"/>
</g>
<g opacity="0.2">
<path d="M1153.42 370L1149.94 375.336L1087.99 372.243L1153.42 370Z" fill="#272729" fill-opacity="0.63"/>
<path d="M1153.42 370L1165 430H1113.13L1153.42 370Z" fill="#272729" fill-opacity="0.63"/>
<path d="M1087.99 372.243L1113.74 429.988H1083L1087.99 372.243Z" fill="#272729" fill-opacity="0.63"/>
<path d="M1087.99 372.243L1149.73 375.436L1113.5 429.471L1087.99 372.243Z" fill="#272729" fill-opacity="0.63"/>
</g>
<g opacity="0.2">
<path d="M1658.46 305L1653.8 316.116L1570.69 309.672L1658.46 305Z" fill="#272729"/>
<path d="M1658.47 305L1674 430H1604.41L1658.47 305Z" fill="#272729"/>
<path d="M1570.69 309.671L1605.24 429.975H1564L1570.69 309.671Z" fill="#272729"/>
<path d="M1570.69 309.671L1653.52 316.325L1604.92 428.896L1570.69 309.671Z" fill="#272729"/>
</g>
<g opacity="0.2">
<path d="M1768.06 229L1762.68 246.785L1666.73 236.475L1768.06 229Z" fill="#272729" fill-opacity="0.63"/>
<path d="M1768.07 229L1786 429H1705.66L1768.07 229Z" fill="#272729" fill-opacity="0.63"/>
<path d="M1666.73 236.474L1706.61 428.959H1659L1666.73 236.474Z" fill="#272729" fill-opacity="0.63"/>
<path d="M1666.73 236.474L1762.35 247.12L1706.24 427.234L1666.73 236.474Z" fill="#272729" fill-opacity="0.63"/>
</g>
<g opacity="0.2">
<path d="M182.557 125L395.5 431H1L182.557 125Z" fill="#272729" fill-opacity="0.63"/>
<path d="M408.697 192L551.5 431H268.5L408.697 192Z" fill="#272729"/>
<path d="M823.503 157L987.5 431H662.5L823.503 157Z" fill="#272729" fill-opacity="0.63"/>
</g>
</svg>
