<svg width="774" height="596" viewBox="0 0 774 596" fill="none" xmlns="http://www.w3.org/2000/svg">
<path d="M524.102 131L774 596H280L524.102 131Z" fill="#535354"/>
<path d="M524 131L774 596H524V131Z" fill="#141416" fill-opacity="0.7"/>
<path d="M292.979 46L585.958 596H0L292.979 46Z" fill="#535354"/>
<path d="M293 45.5L586 596H285.732L293 45.5Z" fill="#272729"/>
<line x1="293.562" y1="43.2983" x2="307.98" y2="16.9902" stroke="#BBB9B9" stroke-linejoin="round"/>
<path d="M315.711 7.91797C315.711 8.92969 315.365 9.70898 314.672 10.2559C313.984 10.7982 312.997 11.0693 311.712 11.0693H310.536V15H309.374V5.00586H311.965C314.462 5.00586 315.711 5.97656 315.711 7.91797ZM310.536 10.0713H311.582C312.612 10.0713 313.357 9.90495 313.817 9.57227C314.278 9.23958 314.508 8.70638 314.508 7.97266C314.508 7.31185 314.291 6.81966 313.858 6.49609C313.425 6.17253 312.751 6.01074 311.835 6.01074H310.536V10.0713ZM318.773 15H317.639V7.50781H318.773V15ZM317.543 5.47754C317.543 5.21777 317.607 5.02865 317.734 4.91016C317.862 4.78711 318.021 4.72559 318.213 4.72559C318.395 4.72559 318.552 4.78711 318.685 4.91016C318.817 5.0332 318.883 5.22233 318.883 5.47754C318.883 5.73275 318.817 5.92415 318.685 6.05176C318.552 6.1748 318.395 6.23633 318.213 6.23633C318.021 6.23633 317.862 6.1748 317.734 6.05176C317.607 5.92415 317.543 5.73275 317.543 5.47754ZM322.314 15H321.18V4.36328H322.314V15ZM329.328 15L329.103 13.9336H329.048C328.674 14.403 328.3 14.722 327.927 14.8906C327.558 15.0547 327.095 15.1367 326.539 15.1367C325.796 15.1367 325.213 14.9453 324.789 14.5625C324.37 14.1797 324.16 13.6351 324.16 12.9287C324.16 11.4157 325.37 10.6227 327.79 10.5498L329.062 10.5088V10.0439C329.062 9.45605 328.934 9.02311 328.679 8.74512C328.428 8.46257 328.025 8.32129 327.469 8.32129C326.844 8.32129 326.138 8.5127 325.35 8.89551L325.001 8.02734C325.37 7.82682 325.773 7.6696 326.211 7.55566C326.653 7.44173 327.095 7.38477 327.537 7.38477C328.43 7.38477 329.091 7.58301 329.52 7.97949C329.952 8.37598 330.169 9.01172 330.169 9.88672V15H329.328ZM326.765 14.2002C327.471 14.2002 328.025 14.0065 328.426 13.6191C328.831 13.2318 329.034 12.6895 329.034 11.9922V11.3154L327.899 11.3633C326.997 11.3952 326.345 11.5365 325.944 11.7871C325.548 12.0332 325.35 12.4183 325.35 12.9424C325.35 13.3525 325.473 13.6647 325.719 13.8789C325.969 14.0931 326.318 14.2002 326.765 14.2002ZM334.934 14.2002C335.134 14.2002 335.328 14.1865 335.515 14.1592C335.701 14.1273 335.85 14.0954 335.959 14.0635V14.9316C335.836 14.9909 335.654 15.0387 335.412 15.0752C335.175 15.1162 334.961 15.1367 334.77 15.1367C333.32 15.1367 332.596 14.3734 332.596 12.8467V8.38965H331.522V7.84277L332.596 7.37109L333.074 5.77148H333.73V7.50781H335.904V8.38965H333.73V12.7988C333.73 13.25 333.838 13.5964 334.052 13.8379C334.266 14.0794 334.56 14.2002 334.934 14.2002ZM338.529 7.50781V12.3682C338.529 12.9788 338.668 13.4346 338.946 13.7354C339.224 14.0361 339.66 14.1865 340.252 14.1865C341.036 14.1865 341.608 13.9723 341.968 13.5439C342.332 13.1156 342.515 12.416 342.515 11.4453V7.50781H343.649V15H342.713L342.549 13.9951H342.487C342.255 14.3643 341.931 14.6468 341.517 14.8428C341.106 15.0387 340.637 15.1367 340.108 15.1367C339.197 15.1367 338.513 14.9202 338.058 14.4873C337.606 14.0544 337.381 13.3617 337.381 12.4092V7.50781H338.529ZM350.896 12.9561C350.896 13.6533 350.636 14.1911 350.116 14.5693C349.597 14.9476 348.868 15.1367 347.929 15.1367C346.935 15.1367 346.16 14.9795 345.604 14.665V13.6123C345.965 13.7946 346.35 13.9382 346.76 14.043C347.174 14.1478 347.573 14.2002 347.956 14.2002C348.549 14.2002 349.004 14.1068 349.323 13.9199C349.642 13.7285 349.802 13.4391 349.802 13.0518C349.802 12.7601 349.674 12.5117 349.419 12.3066C349.168 12.097 348.676 11.8509 347.942 11.5684C347.245 11.3086 346.748 11.083 346.452 10.8916C346.16 10.6956 345.942 10.4746 345.796 10.2285C345.655 9.98242 345.584 9.68848 345.584 9.34668C345.584 8.736 345.832 8.25521 346.329 7.9043C346.826 7.54883 347.507 7.37109 348.373 7.37109C349.18 7.37109 349.968 7.53516 350.738 7.86328L350.335 8.78613C349.583 8.47624 348.902 8.32129 348.291 8.32129C347.753 8.32129 347.348 8.4056 347.074 8.57422C346.801 8.74284 346.664 8.97526 346.664 9.27148C346.664 9.47201 346.714 9.6429 346.814 9.78418C346.919 9.92546 347.086 10.0599 347.313 10.1875C347.541 10.3151 347.979 10.4997 348.626 10.7412C349.515 11.0648 350.114 11.3906 350.424 11.7188C350.738 12.0469 350.896 12.4593 350.896 12.9561Z" fill="#BBB9B9"/>
<line x1="524.562" y1="128.298" x2="538.98" y2="101.99" stroke="#BBB9B9" stroke-linejoin="round"/>
<path d="M541.536 95.8438V100H540.374V90.0059H543.115C544.341 90.0059 545.246 90.2406 545.829 90.71C546.417 91.1794 546.711 91.8857 546.711 92.8291C546.711 94.1507 546.041 95.0439 544.701 95.5088L547.415 100H546.041L543.621 95.8438H541.536ZM541.536 94.8457H543.129C543.949 94.8457 544.551 94.6839 544.934 94.3604C545.316 94.0322 545.508 93.5423 545.508 92.8906C545.508 92.2298 545.312 91.7536 544.92 91.4619C544.533 91.1702 543.908 91.0244 543.047 91.0244H541.536V94.8457ZM549.992 100H548.857V92.5078H549.992V100ZM548.762 90.4775C548.762 90.2178 548.826 90.0286 548.953 89.9102C549.081 89.7871 549.24 89.7256 549.432 89.7256C549.614 89.7256 549.771 89.7871 549.903 89.9102C550.035 90.0332 550.102 90.2223 550.102 90.4775C550.102 90.7327 550.035 90.9242 549.903 91.0518C549.771 91.1748 549.614 91.2363 549.432 91.2363C549.24 91.2363 549.081 91.1748 548.953 91.0518C548.826 90.9242 548.762 90.7327 548.762 90.4775ZM558.53 92.5078V93.2256L557.143 93.3896C557.27 93.5492 557.384 93.7588 557.484 94.0186C557.585 94.2738 557.635 94.5632 557.635 94.8867C557.635 95.6204 557.384 96.2061 556.883 96.6436C556.382 97.0811 555.693 97.2998 554.818 97.2998C554.595 97.2998 554.385 97.2816 554.189 97.2451C553.706 97.5003 553.465 97.8216 553.465 98.209C553.465 98.4141 553.549 98.5667 553.718 98.667C553.886 98.7627 554.176 98.8105 554.586 98.8105H555.912C556.723 98.8105 557.345 98.9814 557.778 99.3232C558.216 99.665 558.435 100.162 558.435 100.813C558.435 101.643 558.102 102.274 557.437 102.707C556.771 103.145 555.8 103.363 554.524 103.363C553.545 103.363 552.788 103.181 552.255 102.816C551.726 102.452 551.462 101.937 551.462 101.271C551.462 100.816 551.608 100.422 551.899 100.089C552.191 99.7562 552.601 99.5306 553.13 99.4121C552.938 99.3255 552.777 99.1911 552.645 99.0088C552.517 98.8265 552.453 98.6146 552.453 98.373C552.453 98.0996 552.526 97.8604 552.672 97.6553C552.818 97.4502 553.048 97.252 553.362 97.0605C552.975 96.901 552.658 96.6299 552.412 96.2471C552.171 95.8643 552.05 95.4268 552.05 94.9346C552.05 94.1143 552.296 93.4831 552.788 93.041C553.28 92.5944 553.978 92.3711 554.88 92.3711C555.272 92.3711 555.625 92.4167 555.939 92.5078H558.53ZM552.556 101.258C552.556 101.663 552.727 101.971 553.068 102.181C553.41 102.39 553.9 102.495 554.538 102.495C555.491 102.495 556.195 102.352 556.65 102.064C557.111 101.782 557.341 101.397 557.341 100.909C557.341 100.504 557.215 100.221 556.965 100.062C556.714 99.9066 556.243 99.8291 555.55 99.8291H554.189C553.674 99.8291 553.273 99.9521 552.986 100.198C552.699 100.444 552.556 100.798 552.556 101.258ZM553.171 94.9072C553.171 95.4313 553.319 95.8278 553.615 96.0967C553.911 96.3656 554.324 96.5 554.853 96.5C555.96 96.5 556.514 95.9622 556.514 94.8867C556.514 93.7611 555.953 93.1982 554.832 93.1982C554.299 93.1982 553.889 93.3418 553.602 93.6289C553.314 93.916 553.171 94.3421 553.171 94.9072ZM561.203 100H560.068V92.5078H561.203V100ZM559.973 90.4775C559.973 90.2178 560.036 90.0286 560.164 89.9102C560.292 89.7871 560.451 89.7256 560.643 89.7256C560.825 89.7256 560.982 89.7871 561.114 89.9102C561.246 90.0332 561.312 90.2223 561.312 90.4775C561.312 90.7327 561.246 90.9242 561.114 91.0518C560.982 91.1748 560.825 91.2363 560.643 91.2363C560.451 91.2363 560.292 91.1748 560.164 91.0518C560.036 90.9242 559.973 90.7327 559.973 90.4775Z" fill="#BBB9B9"/>
</svg>
